G04 #@! TF.GenerationSoftware,KiCad,Pcbnew,5.0.2-bee76a0~70~ubuntu18.04.1*
G04 #@! TF.CreationDate,2019-06-02T21:49:57-04:00*
G04 #@! TF.ProjectId,AiLight Flasher,41694c69-6768-4742-9046-6c6173686572,rev?*
G04 #@! TF.SameCoordinates,PX5204180PY6cb8080*
G04 #@! TF.FileFunction,Legend,Top*
G04 #@! TF.FilePolarity,Positive*
%FSLAX46Y46*%
G04 Gerber Fmt 4.6, Leading zero omitted, Abs format (unit mm)*
G04 Created by KiCad (PCBNEW 5.0.2-bee76a0~70~ubuntu18.04.1) date Sun 02 Jun 2019 09:49:57 PM EDT*
%MOMM*%
%LPD*%
G01*
G04 APERTURE LIST*
%ADD10C,0.300000*%
%ADD11C,0.120000*%
%ADD12C,0.150000*%
G04 APERTURE END LIST*
D10*
X7741370Y18981726D02*
X6680710Y20042386D01*
X7084771Y20446447D01*
X7236294Y20496955D01*
X7337309Y20496955D01*
X7488832Y20446447D01*
X7640355Y20294924D01*
X7690862Y20143401D01*
X7690862Y20042386D01*
X7640355Y19890863D01*
X7236294Y19486802D01*
X9408122Y20648478D02*
X8549492Y20800000D01*
X8802030Y20042386D02*
X7741370Y21103046D01*
X8145431Y21507107D01*
X8296954Y21557615D01*
X8397969Y21557615D01*
X8549492Y21507107D01*
X8701015Y21355584D01*
X8751522Y21204062D01*
X8751522Y21103046D01*
X8701015Y20951523D01*
X8296954Y20547462D01*
X9408122Y22668783D02*
X9256599Y22618275D01*
X9105076Y22466752D01*
X9004061Y22264722D01*
X9004061Y22062691D01*
X9054568Y21911168D01*
X9206091Y21658630D01*
X9357614Y21507107D01*
X9610152Y21355584D01*
X9761675Y21305077D01*
X9963705Y21305077D01*
X10165736Y21406092D01*
X10266751Y21507107D01*
X10367766Y21709138D01*
X10367766Y21810153D01*
X10014213Y22163706D01*
X9812183Y21961676D01*
X19920473Y22281558D02*
X19449068Y22752962D01*
X18708290Y22012184D02*
X20122503Y23426397D01*
X20795938Y22752962D01*
X21132656Y22416245D02*
X21940778Y21608123D01*
X20122503Y20597970D02*
X21536717Y22012184D01*
X20997969Y19722504D02*
X22412183Y21136718D01*
X22748900Y20800000D01*
X22883587Y20530626D01*
X22883587Y20261252D01*
X22816244Y20059222D01*
X22614213Y19722504D01*
X22412183Y19520474D01*
X22075465Y19318443D01*
X21873435Y19251100D01*
X21604061Y19251100D01*
X21334687Y19385787D01*
X20997969Y19722504D01*
X22412183Y18308291D02*
X23826396Y19722504D01*
X4504761Y8366667D02*
X5457142Y8366667D01*
X4314285Y7795239D02*
X4980952Y9795239D01*
X5647619Y7795239D01*
X6314285Y7795239D02*
X6314285Y9128572D01*
X6314285Y9795239D02*
X6219047Y9700000D01*
X6314285Y9604762D01*
X6409523Y9700000D01*
X6314285Y9795239D01*
X6314285Y9604762D01*
X8219047Y7795239D02*
X7266666Y7795239D01*
X7266666Y9795239D01*
X8885714Y7795239D02*
X8885714Y9128572D01*
X8885714Y9795239D02*
X8790476Y9700000D01*
X8885714Y9604762D01*
X8980952Y9700000D01*
X8885714Y9795239D01*
X8885714Y9604762D01*
X10695238Y9128572D02*
X10695238Y7509524D01*
X10600000Y7319048D01*
X10504761Y7223810D01*
X10314285Y7128572D01*
X10028571Y7128572D01*
X9838095Y7223810D01*
X10695238Y7890477D02*
X10504761Y7795239D01*
X10123809Y7795239D01*
X9933333Y7890477D01*
X9838095Y7985715D01*
X9742857Y8176191D01*
X9742857Y8747620D01*
X9838095Y8938096D01*
X9933333Y9033334D01*
X10123809Y9128572D01*
X10504761Y9128572D01*
X10695238Y9033334D01*
X11647619Y7795239D02*
X11647619Y9795239D01*
X12504761Y7795239D02*
X12504761Y8842858D01*
X12409523Y9033334D01*
X12219047Y9128572D01*
X11933333Y9128572D01*
X11742857Y9033334D01*
X11647619Y8938096D01*
X13171428Y9128572D02*
X13933333Y9128572D01*
X13457142Y9795239D02*
X13457142Y8080953D01*
X13552380Y7890477D01*
X13742857Y7795239D01*
X13933333Y7795239D01*
X15266666Y8842858D02*
X14600000Y8842858D01*
X14600000Y7795239D02*
X14600000Y9795239D01*
X15552380Y9795239D01*
X16600000Y7795239D02*
X16409523Y7890477D01*
X16314285Y8080953D01*
X16314285Y9795239D01*
X18219047Y7795239D02*
X18219047Y8842858D01*
X18123809Y9033334D01*
X17933333Y9128572D01*
X17552380Y9128572D01*
X17361904Y9033334D01*
X18219047Y7890477D02*
X18028571Y7795239D01*
X17552380Y7795239D01*
X17361904Y7890477D01*
X17266666Y8080953D01*
X17266666Y8271429D01*
X17361904Y8461905D01*
X17552380Y8557143D01*
X18028571Y8557143D01*
X18219047Y8652381D01*
X19076190Y7890477D02*
X19266666Y7795239D01*
X19647619Y7795239D01*
X19838095Y7890477D01*
X19933333Y8080953D01*
X19933333Y8176191D01*
X19838095Y8366667D01*
X19647619Y8461905D01*
X19361904Y8461905D01*
X19171428Y8557143D01*
X19076190Y8747620D01*
X19076190Y8842858D01*
X19171428Y9033334D01*
X19361904Y9128572D01*
X19647619Y9128572D01*
X19838095Y9033334D01*
X20790476Y7795239D02*
X20790476Y9795239D01*
X21647619Y7795239D02*
X21647619Y8842858D01*
X21552380Y9033334D01*
X21361904Y9128572D01*
X21076190Y9128572D01*
X20885714Y9033334D01*
X20790476Y8938096D01*
X23361904Y7890477D02*
X23171428Y7795239D01*
X22790476Y7795239D01*
X22600000Y7890477D01*
X22504761Y8080953D01*
X22504761Y8842858D01*
X22600000Y9033334D01*
X22790476Y9128572D01*
X23171428Y9128572D01*
X23361904Y9033334D01*
X23457142Y8842858D01*
X23457142Y8652381D01*
X22504761Y8461905D01*
X24314285Y7795239D02*
X24314285Y9128572D01*
X24314285Y8747620D02*
X24409523Y8938096D01*
X24504761Y9033334D01*
X24695238Y9128572D01*
X24885714Y9128572D01*
X10409523Y4590477D02*
X10219047Y4495239D01*
X9838095Y4495239D01*
X9647619Y4590477D01*
X9552380Y4685715D01*
X9457142Y4876191D01*
X9457142Y5447620D01*
X9552380Y5638096D01*
X9647619Y5733334D01*
X9838095Y5828572D01*
X10219047Y5828572D01*
X10409523Y5733334D01*
X11266666Y5828572D02*
X11266666Y3828572D01*
X11266666Y5733334D02*
X11457142Y5828572D01*
X11838095Y5828572D01*
X12028571Y5733334D01*
X12123809Y5638096D01*
X12219047Y5447620D01*
X12219047Y4876191D01*
X12123809Y4685715D01*
X12028571Y4590477D01*
X11838095Y4495239D01*
X11457142Y4495239D01*
X11266666Y4590477D01*
X13838095Y4590477D02*
X13647619Y4495239D01*
X13266666Y4495239D01*
X13076190Y4590477D01*
X12980952Y4780953D01*
X12980952Y5542858D01*
X13076190Y5733334D01*
X13266666Y5828572D01*
X13647619Y5828572D01*
X13838095Y5733334D01*
X13933333Y5542858D01*
X13933333Y5352381D01*
X12980952Y5161905D01*
X14790476Y4495239D02*
X14790476Y5828572D01*
X14790476Y5447620D02*
X14885714Y5638096D01*
X14980952Y5733334D01*
X15171428Y5828572D01*
X15361904Y5828572D01*
X16028571Y4495239D02*
X16028571Y5828572D01*
X16028571Y6495239D02*
X15933333Y6400000D01*
X16028571Y6304762D01*
X16123809Y6400000D01*
X16028571Y6495239D01*
X16028571Y6304762D01*
X17266666Y4495239D02*
X17076190Y4590477D01*
X16980952Y4685715D01*
X16885714Y4876191D01*
X16885714Y5447620D01*
X16980952Y5638096D01*
X17076190Y5733334D01*
X17266666Y5828572D01*
X17552380Y5828572D01*
X17742857Y5733334D01*
X17838095Y5638096D01*
X17933333Y5447620D01*
X17933333Y4876191D01*
X17838095Y4685715D01*
X17742857Y4590477D01*
X17552380Y4495239D01*
X17266666Y4495239D01*
X19647619Y4495239D02*
X19647619Y6495239D01*
X19647619Y4590477D02*
X19457142Y4495239D01*
X19076190Y4495239D01*
X18885714Y4590477D01*
X18790476Y4685715D01*
X18695238Y4876191D01*
X18695238Y5447620D01*
X18790476Y5638096D01*
X18885714Y5733334D01*
X19076190Y5828572D01*
X19457142Y5828572D01*
X19647619Y5733334D01*
X11171428Y3004762D02*
X11266666Y3100000D01*
X11457142Y3195239D01*
X11933333Y3195239D01*
X12123809Y3100000D01*
X12219047Y3004762D01*
X12314285Y2814286D01*
X12314285Y2623810D01*
X12219047Y2338096D01*
X11076190Y1195239D01*
X12314285Y1195239D01*
X13552380Y3195239D02*
X13742857Y3195239D01*
X13933333Y3100000D01*
X14028571Y3004762D01*
X14123809Y2814286D01*
X14219047Y2433334D01*
X14219047Y1957143D01*
X14123809Y1576191D01*
X14028571Y1385715D01*
X13933333Y1290477D01*
X13742857Y1195239D01*
X13552380Y1195239D01*
X13361904Y1290477D01*
X13266666Y1385715D01*
X13171428Y1576191D01*
X13076190Y1957143D01*
X13076190Y2433334D01*
X13171428Y2814286D01*
X13266666Y3004762D01*
X13361904Y3100000D01*
X13552380Y3195239D01*
X16123809Y1195239D02*
X14980952Y1195239D01*
X15552380Y1195239D02*
X15552380Y3195239D01*
X15361904Y2909524D01*
X15171428Y2719048D01*
X14980952Y2623810D01*
X17076190Y1195239D02*
X17457142Y1195239D01*
X17647619Y1290477D01*
X17742857Y1385715D01*
X17933333Y1671429D01*
X18028571Y2052381D01*
X18028571Y2814286D01*
X17933333Y3004762D01*
X17838095Y3100000D01*
X17647619Y3195239D01*
X17266666Y3195239D01*
X17076190Y3100000D01*
X16980952Y3004762D01*
X16885714Y2814286D01*
X16885714Y2338096D01*
X16980952Y2147620D01*
X17076190Y2052381D01*
X17266666Y1957143D01*
X17647619Y1957143D01*
X17838095Y2052381D01*
X17933333Y2147620D01*
X18028571Y2338096D01*
X22052538Y13208123D02*
X22002030Y13359645D01*
X21850507Y13511168D01*
X21648477Y13612184D01*
X21446446Y13612184D01*
X21294923Y13561676D01*
X21042385Y13410153D01*
X20890862Y13258630D01*
X20739339Y13006092D01*
X20688832Y12854569D01*
X20688832Y12652539D01*
X20789847Y12450508D01*
X20890862Y12349493D01*
X21092893Y12248478D01*
X21193908Y12248478D01*
X21547461Y12602031D01*
X21345431Y12804062D01*
X21547461Y11692894D02*
X22608122Y12753554D01*
X22153553Y11086802D01*
X23214213Y12147462D01*
D11*
G04 #@! TO.C,J6*
X23516426Y16016478D02*
X14493744Y25039160D01*
X14493744Y25039160D02*
X12612840Y23158256D01*
X12612840Y23158256D02*
X21635522Y14135574D01*
X21635522Y14135574D02*
X23516426Y16016478D01*
X24414452Y15118452D02*
X25354904Y14178000D01*
X25354904Y14178000D02*
X24414452Y13237548D01*
G04 #@! TO.C,JP1*
X12200000Y28680904D02*
X13140452Y27740452D01*
X11259548Y27740452D02*
X12200000Y28680904D01*
X12242426Y24961522D02*
X10361522Y26842426D01*
X10403949Y23123045D02*
X12242426Y24961522D01*
X8523045Y25003949D02*
X10403949Y23123045D01*
X10361522Y26842426D02*
X8523045Y25003949D01*
G04 #@! TO.C,J1*
X9890000Y2560000D02*
G75*
G03X9890000Y2560000I-1200000J0D01*
G01*
G04 #@! TO.C,J2*
X3330000Y19260000D02*
G75*
G03X3330000Y19260000I-1200000J0D01*
G01*
G04 #@! TO.C,J3*
X2430000Y11630000D02*
G75*
G03X2430000Y11630000I-1200000J0D01*
G01*
G04 #@! TO.C,J4*
X7010000Y5070000D02*
G75*
G03X7010000Y5070000I-1200000J0D01*
G01*
G04 #@! TO.C,J5*
X5360000Y6720000D02*
G75*
G03X5360000Y6720000I-1200000J0D01*
G01*
G04 #@! TO.C,J1*
D12*
X8356666Y5105620D02*
X8356666Y4391334D01*
X8309047Y4248477D01*
X8213809Y4153239D01*
X8070952Y4105620D01*
X7975714Y4105620D01*
X9356666Y4105620D02*
X8785238Y4105620D01*
X9070952Y4105620D02*
X9070952Y5105620D01*
X8975714Y4962762D01*
X8880476Y4867524D01*
X8785238Y4819905D01*
G04 #@! TO.C,J2*
X1796666Y21805620D02*
X1796666Y21091334D01*
X1749047Y20948477D01*
X1653809Y20853239D01*
X1510952Y20805620D01*
X1415714Y20805620D01*
X2225238Y21710381D02*
X2272857Y21758000D01*
X2368095Y21805620D01*
X2606190Y21805620D01*
X2701428Y21758000D01*
X2749047Y21710381D01*
X2796666Y21615143D01*
X2796666Y21519905D01*
X2749047Y21377048D01*
X2177619Y20805620D01*
X2796666Y20805620D01*
G04 #@! TO.C,J3*
X896666Y14175620D02*
X896666Y13461334D01*
X849047Y13318477D01*
X753809Y13223239D01*
X610952Y13175620D01*
X515714Y13175620D01*
X1277619Y14175620D02*
X1896666Y14175620D01*
X1563333Y13794667D01*
X1706190Y13794667D01*
X1801428Y13747048D01*
X1849047Y13699429D01*
X1896666Y13604191D01*
X1896666Y13366096D01*
X1849047Y13270858D01*
X1801428Y13223239D01*
X1706190Y13175620D01*
X1420476Y13175620D01*
X1325238Y13223239D01*
X1277619Y13270858D01*
G04 #@! TO.C,J4*
X5476666Y7615620D02*
X5476666Y6901334D01*
X5429047Y6758477D01*
X5333809Y6663239D01*
X5190952Y6615620D01*
X5095714Y6615620D01*
X6381428Y7282286D02*
X6381428Y6615620D01*
X6143333Y7663239D02*
X5905238Y6948953D01*
X6524285Y6948953D01*
G04 #@! TO.C,J5*
X3826666Y9265620D02*
X3826666Y8551334D01*
X3779047Y8408477D01*
X3683809Y8313239D01*
X3540952Y8265620D01*
X3445714Y8265620D01*
X4779047Y9265620D02*
X4302857Y9265620D01*
X4255238Y8789429D01*
X4302857Y8837048D01*
X4398095Y8884667D01*
X4636190Y8884667D01*
X4731428Y8837048D01*
X4779047Y8789429D01*
X4826666Y8694191D01*
X4826666Y8456096D01*
X4779047Y8360858D01*
X4731428Y8313239D01*
X4636190Y8265620D01*
X4398095Y8265620D01*
X4302857Y8313239D01*
X4255238Y8360858D01*
G04 #@! TD*
M02*
