G04 #@! TF.GenerationSoftware,KiCad,Pcbnew,5.0.2-bee76a0~70~ubuntu18.04.1*
G04 #@! TF.CreationDate,2019-06-02T16:31:15-04:00*
G04 #@! TF.ProjectId,AiLight Flasher,41694c69-6768-4742-9046-6c6173686572,rev?*
G04 #@! TF.SameCoordinates,PX5204180PY6cb8080*
G04 #@! TF.FileFunction,Copper,L2,Bot*
G04 #@! TF.FilePolarity,Positive*
%FSLAX46Y46*%
G04 Gerber Fmt 4.6, Leading zero omitted, Abs format (unit mm)*
G04 Created by KiCad (PCBNEW 5.0.2-bee76a0~70~ubuntu18.04.1) date Sun 02 Jun 2019 04:31:15 PM EDT*
%MOMM*%
%LPD*%
G01*
G04 APERTURE LIST*
G04 #@! TA.AperFunction,ComponentPad*
%ADD10C,2.000000*%
G04 #@! TD*
G04 #@! TA.AperFunction,ComponentPad*
%ADD11C,4.500880*%
G04 #@! TD*
G04 #@! TA.AperFunction,ComponentPad*
%ADD12C,1.700000*%
G04 #@! TD*
G04 #@! TA.AperFunction,Conductor*
%ADD13C,0.050000*%
G04 #@! TD*
G04 #@! TA.AperFunction,Conductor*
%ADD14C,1.700000*%
G04 #@! TD*
G04 #@! TA.AperFunction,Conductor*
%ADD15C,0.500000*%
G04 #@! TD*
G04 #@! TA.AperFunction,Conductor*
%ADD16C,0.254000*%
G04 #@! TD*
G04 APERTURE END LIST*
D10*
G04 #@! TO.P,J1,1*
G04 #@! TO.N,GND*
X8690000Y2560000D03*
G04 #@! TD*
G04 #@! TO.P,J2,1*
G04 #@! TO.N,GND*
X2130000Y19260000D03*
G04 #@! TD*
G04 #@! TO.P,J3,1*
G04 #@! TO.N,3V3*
X1230000Y11630000D03*
G04 #@! TD*
G04 #@! TO.P,J4,1*
G04 #@! TO.N,aRX*
X5810000Y5070000D03*
G04 #@! TD*
G04 #@! TO.P,J5,1*
G04 #@! TO.N,aTX*
X4160000Y6720000D03*
G04 #@! TD*
D11*
G04 #@! TO.P,H1,1*
G04 #@! TO.N,N/C*
X5600000Y23040000D03*
G04 #@! TD*
G04 #@! TO.P,H2,1*
G04 #@! TO.N,N/C*
X22670000Y4690000D03*
G04 #@! TD*
D12*
G04 #@! TO.P,J6,1*
G04 #@! TO.N,GND*
X15000000Y24000000D03*
D13*
G04 #@! TD*
G04 #@! TO.N,GND*
G04 #@! TO.C,J6*
G36*
X14893934Y22691852D02*
X13691852Y23893934D01*
X15106066Y25308148D01*
X16308148Y24106066D01*
X14893934Y22691852D01*
X14893934Y22691852D01*
G37*
D12*
G04 #@! TO.P,J6,2*
G04 #@! TO.N,Net-(J6-Pad2)*
X16796051Y22203949D03*
D14*
G04 #@! TD*
G04 #@! TO.N,Net-(J6-Pad2)*
G04 #@! TO.C,J6*
X16619274Y22027172D02*
X16972828Y22380726D01*
D12*
G04 #@! TO.P,J6,3*
G04 #@! TO.N,3V3*
X18592102Y20407898D03*
D14*
G04 #@! TD*
G04 #@! TO.N,3V3*
G04 #@! TO.C,J6*
X18415325Y20231121D02*
X18768879Y20584675D01*
D12*
G04 #@! TO.P,J6,4*
G04 #@! TO.N,aRX*
X20388154Y18611846D03*
D14*
G04 #@! TD*
G04 #@! TO.N,aRX*
G04 #@! TO.C,J6*
X20211377Y18435069D02*
X20564931Y18788623D01*
D12*
G04 #@! TO.P,J6,5*
G04 #@! TO.N,aTX*
X22184205Y16815795D03*
D14*
G04 #@! TD*
G04 #@! TO.N,aTX*
G04 #@! TO.C,J6*
X22007428Y16639018D02*
X22360982Y16992572D01*
D12*
G04 #@! TO.P,J6,6*
G04 #@! TO.N,Net-(J6-Pad6)*
X23980256Y15019744D03*
D14*
G04 #@! TD*
G04 #@! TO.N,Net-(J6-Pad6)*
G04 #@! TO.C,J6*
X23803479Y14842967D02*
X24157033Y15196521D01*
D15*
G04 #@! TO.N,3V3*
X17284204Y19100000D02*
X18592102Y20407898D01*
X1230000Y11630000D02*
X8700000Y19100000D01*
X8700000Y19100000D02*
X17284204Y19100000D01*
G04 #@! TO.N,aRX*
X7140000Y6400000D02*
X17982000Y6400000D01*
X17982000Y6400000D02*
X25700000Y14118000D01*
X21590235Y18611846D02*
X20388154Y18611846D01*
X25700000Y16000000D02*
X23088154Y18611846D01*
X25700000Y14118000D02*
X25700000Y16000000D01*
X5810000Y5070000D02*
X7140000Y6400000D01*
X23088154Y18611846D02*
X21590235Y18611846D01*
G04 #@! TO.N,aTX*
X20700000Y15214000D02*
X22184205Y16698205D01*
X22184205Y16698205D02*
X22184205Y16815795D01*
X20700000Y12293000D02*
X20700000Y15214000D01*
X16407000Y8000000D02*
X20700000Y12293000D01*
X4160000Y6720000D02*
X5440000Y8000000D01*
X5440000Y8000000D02*
X16407000Y8000000D01*
G04 #@! TD*
D16*
G04 #@! TO.N,GND*
G36*
X15058465Y27155488D02*
X16450428Y26968524D01*
X17814642Y26634703D01*
X19135658Y26157805D01*
X20398517Y25543231D01*
X21588919Y24797940D01*
X22693383Y23930372D01*
X23699403Y22950351D01*
X24595585Y21868976D01*
X25371782Y20698491D01*
X26019203Y19452152D01*
X26530517Y18144072D01*
X26899935Y16789065D01*
X27123272Y15402473D01*
X27198000Y14000000D01*
X27197980Y13976965D01*
X27120804Y12574625D01*
X26895047Y11188425D01*
X26523266Y9834064D01*
X26009669Y8526879D01*
X25360073Y7281671D01*
X24932059Y6638676D01*
X24356584Y7214151D01*
X23262250Y7667440D01*
X22077750Y7667440D01*
X20983416Y7214151D01*
X20145849Y6376584D01*
X19692560Y5282250D01*
X19692560Y4097750D01*
X20145849Y3003416D01*
X20578702Y2570563D01*
X20378361Y2445619D01*
X19114431Y1833250D01*
X17792584Y1358659D01*
X16427790Y1027219D01*
X15035503Y842685D01*
X13631490Y807146D01*
X12231650Y921004D01*
X10851835Y1182970D01*
X10044242Y1427566D01*
X10055669Y1438993D01*
X9922191Y1572471D01*
X10209340Y1669975D01*
X10434285Y2319150D01*
X10393678Y3004993D01*
X10209340Y3450025D01*
X9922189Y3547530D01*
X8934659Y2560000D01*
X8948801Y2545858D01*
X8704142Y2301199D01*
X8690000Y2315341D01*
X8675858Y2301199D01*
X8431199Y2545858D01*
X8445341Y2560000D01*
X7457811Y3547530D01*
X7170660Y3450025D01*
X6958981Y2839134D01*
X6210098Y3366434D01*
X6788267Y3605920D01*
X6974536Y3792189D01*
X7702470Y3792189D01*
X8690000Y2804659D01*
X9677530Y3792189D01*
X9580025Y4079340D01*
X8930850Y4304285D01*
X8245007Y4263678D01*
X7799975Y4079340D01*
X7702470Y3792189D01*
X6974536Y3792189D01*
X7274080Y4091733D01*
X7537000Y4726478D01*
X7537000Y5413522D01*
X7536475Y5414789D01*
X7544687Y5423000D01*
X17885782Y5423000D01*
X17982000Y5403861D01*
X18078218Y5423000D01*
X18078223Y5423000D01*
X18363206Y5479687D01*
X18686377Y5695623D01*
X18740883Y5777197D01*
X26322806Y13359119D01*
X26404377Y13413623D01*
X26458881Y13495194D01*
X26458883Y13495196D01*
X26620312Y13736793D01*
X26620313Y13736794D01*
X26677000Y14021777D01*
X26677000Y14021781D01*
X26696139Y14117999D01*
X26677000Y14214217D01*
X26677000Y15903783D01*
X26696139Y16000001D01*
X26677000Y16096219D01*
X26677000Y16096223D01*
X26620313Y16381206D01*
X26565949Y16462567D01*
X26458883Y16622804D01*
X26458881Y16622806D01*
X26404377Y16704377D01*
X26322806Y16758881D01*
X23847037Y19234649D01*
X23792531Y19316223D01*
X23469360Y19532159D01*
X23184377Y19588846D01*
X23184372Y19588846D01*
X23088154Y19607985D01*
X22991936Y19588846D01*
X21926880Y19588846D01*
X21701884Y19925576D01*
X21180245Y20274124D01*
X20564931Y20396517D01*
X20330053Y20349797D01*
X20376773Y20584675D01*
X20254380Y21199989D01*
X19905832Y21721628D01*
X19384193Y22070176D01*
X18768879Y22192569D01*
X18534002Y22145849D01*
X18580722Y22380726D01*
X18458329Y22996040D01*
X18109781Y23517679D01*
X17588142Y23866227D01*
X17035147Y23976224D01*
X17035148Y24250675D01*
X16924469Y24517878D01*
X16472020Y24970327D01*
X16214986Y24970327D01*
X15244659Y24000000D01*
X15258801Y23985858D01*
X15014142Y23741199D01*
X15000000Y23755341D01*
X14029673Y22785014D01*
X14029673Y22527980D01*
X14482122Y22075531D01*
X14749325Y21964852D01*
X15023776Y21964853D01*
X15133773Y21411858D01*
X15482321Y20890219D01*
X16003960Y20541671D01*
X16619274Y20419278D01*
X16854151Y20465998D01*
X16807431Y20231121D01*
X16838087Y20077000D01*
X8796217Y20077000D01*
X8699999Y20096139D01*
X8603781Y20077000D01*
X8603777Y20077000D01*
X8318794Y20020313D01*
X8318792Y20020312D01*
X8318793Y20020312D01*
X8077196Y19858883D01*
X8077194Y19858881D01*
X7995623Y19804377D01*
X7941119Y19722806D01*
X1574789Y13356475D01*
X1573522Y13357000D01*
X886478Y13357000D01*
X820105Y13329507D01*
X821313Y14713732D01*
X971776Y16110112D01*
X1269771Y17482597D01*
X1343472Y17704797D01*
X1889150Y17515715D01*
X2574993Y17556322D01*
X3020025Y17740660D01*
X3117530Y18027811D01*
X2130000Y19015341D01*
X2115858Y19001199D01*
X1896175Y19220882D01*
X1913961Y19260000D01*
X2374659Y19260000D01*
X3362189Y18272470D01*
X3649340Y18369975D01*
X3874285Y19019150D01*
X3833678Y19704993D01*
X3649340Y20150025D01*
X3362189Y20247530D01*
X2374659Y19260000D01*
X1913961Y19260000D01*
X1961406Y19364349D01*
X2115858Y19518801D01*
X2130000Y19504659D01*
X3117530Y20492189D01*
X3020025Y20779340D01*
X2752378Y20872082D01*
X3007105Y21303662D01*
X3064503Y21380808D01*
X3075849Y21353416D01*
X3913416Y20515849D01*
X5007750Y20062560D01*
X6192250Y20062560D01*
X7286584Y20515849D01*
X8124151Y21353416D01*
X8577440Y22447750D01*
X8577440Y23632250D01*
X8528946Y23749325D01*
X12964852Y23749325D01*
X13075531Y23482122D01*
X13527980Y23029673D01*
X13785014Y23029673D01*
X14755341Y24000000D01*
X13891080Y24864261D01*
X13634046Y24864261D01*
X13075532Y24305747D01*
X12964853Y24038544D01*
X12964852Y23749325D01*
X8528946Y23749325D01*
X8124151Y24726584D01*
X7484781Y25365954D01*
X14135739Y25365954D01*
X14135739Y25108920D01*
X15000000Y24244659D01*
X15970327Y25214986D01*
X15970327Y25472020D01*
X15517878Y25924469D01*
X15250675Y26035148D01*
X14961456Y26035147D01*
X14694253Y25924468D01*
X14135739Y25365954D01*
X7484781Y25365954D01*
X7425958Y25424777D01*
X8235090Y25872364D01*
X9529337Y26417744D01*
X10874210Y26822505D01*
X12254480Y27082063D01*
X13654517Y27193477D01*
X15058465Y27155488D01*
X15058465Y27155488D01*
G37*
X15058465Y27155488D02*
X16450428Y26968524D01*
X17814642Y26634703D01*
X19135658Y26157805D01*
X20398517Y25543231D01*
X21588919Y24797940D01*
X22693383Y23930372D01*
X23699403Y22950351D01*
X24595585Y21868976D01*
X25371782Y20698491D01*
X26019203Y19452152D01*
X26530517Y18144072D01*
X26899935Y16789065D01*
X27123272Y15402473D01*
X27198000Y14000000D01*
X27197980Y13976965D01*
X27120804Y12574625D01*
X26895047Y11188425D01*
X26523266Y9834064D01*
X26009669Y8526879D01*
X25360073Y7281671D01*
X24932059Y6638676D01*
X24356584Y7214151D01*
X23262250Y7667440D01*
X22077750Y7667440D01*
X20983416Y7214151D01*
X20145849Y6376584D01*
X19692560Y5282250D01*
X19692560Y4097750D01*
X20145849Y3003416D01*
X20578702Y2570563D01*
X20378361Y2445619D01*
X19114431Y1833250D01*
X17792584Y1358659D01*
X16427790Y1027219D01*
X15035503Y842685D01*
X13631490Y807146D01*
X12231650Y921004D01*
X10851835Y1182970D01*
X10044242Y1427566D01*
X10055669Y1438993D01*
X9922191Y1572471D01*
X10209340Y1669975D01*
X10434285Y2319150D01*
X10393678Y3004993D01*
X10209340Y3450025D01*
X9922189Y3547530D01*
X8934659Y2560000D01*
X8948801Y2545858D01*
X8704142Y2301199D01*
X8690000Y2315341D01*
X8675858Y2301199D01*
X8431199Y2545858D01*
X8445341Y2560000D01*
X7457811Y3547530D01*
X7170660Y3450025D01*
X6958981Y2839134D01*
X6210098Y3366434D01*
X6788267Y3605920D01*
X6974536Y3792189D01*
X7702470Y3792189D01*
X8690000Y2804659D01*
X9677530Y3792189D01*
X9580025Y4079340D01*
X8930850Y4304285D01*
X8245007Y4263678D01*
X7799975Y4079340D01*
X7702470Y3792189D01*
X6974536Y3792189D01*
X7274080Y4091733D01*
X7537000Y4726478D01*
X7537000Y5413522D01*
X7536475Y5414789D01*
X7544687Y5423000D01*
X17885782Y5423000D01*
X17982000Y5403861D01*
X18078218Y5423000D01*
X18078223Y5423000D01*
X18363206Y5479687D01*
X18686377Y5695623D01*
X18740883Y5777197D01*
X26322806Y13359119D01*
X26404377Y13413623D01*
X26458881Y13495194D01*
X26458883Y13495196D01*
X26620312Y13736793D01*
X26620313Y13736794D01*
X26677000Y14021777D01*
X26677000Y14021781D01*
X26696139Y14117999D01*
X26677000Y14214217D01*
X26677000Y15903783D01*
X26696139Y16000001D01*
X26677000Y16096219D01*
X26677000Y16096223D01*
X26620313Y16381206D01*
X26565949Y16462567D01*
X26458883Y16622804D01*
X26458881Y16622806D01*
X26404377Y16704377D01*
X26322806Y16758881D01*
X23847037Y19234649D01*
X23792531Y19316223D01*
X23469360Y19532159D01*
X23184377Y19588846D01*
X23184372Y19588846D01*
X23088154Y19607985D01*
X22991936Y19588846D01*
X21926880Y19588846D01*
X21701884Y19925576D01*
X21180245Y20274124D01*
X20564931Y20396517D01*
X20330053Y20349797D01*
X20376773Y20584675D01*
X20254380Y21199989D01*
X19905832Y21721628D01*
X19384193Y22070176D01*
X18768879Y22192569D01*
X18534002Y22145849D01*
X18580722Y22380726D01*
X18458329Y22996040D01*
X18109781Y23517679D01*
X17588142Y23866227D01*
X17035147Y23976224D01*
X17035148Y24250675D01*
X16924469Y24517878D01*
X16472020Y24970327D01*
X16214986Y24970327D01*
X15244659Y24000000D01*
X15258801Y23985858D01*
X15014142Y23741199D01*
X15000000Y23755341D01*
X14029673Y22785014D01*
X14029673Y22527980D01*
X14482122Y22075531D01*
X14749325Y21964852D01*
X15023776Y21964853D01*
X15133773Y21411858D01*
X15482321Y20890219D01*
X16003960Y20541671D01*
X16619274Y20419278D01*
X16854151Y20465998D01*
X16807431Y20231121D01*
X16838087Y20077000D01*
X8796217Y20077000D01*
X8699999Y20096139D01*
X8603781Y20077000D01*
X8603777Y20077000D01*
X8318794Y20020313D01*
X8318792Y20020312D01*
X8318793Y20020312D01*
X8077196Y19858883D01*
X8077194Y19858881D01*
X7995623Y19804377D01*
X7941119Y19722806D01*
X1574789Y13356475D01*
X1573522Y13357000D01*
X886478Y13357000D01*
X820105Y13329507D01*
X821313Y14713732D01*
X971776Y16110112D01*
X1269771Y17482597D01*
X1343472Y17704797D01*
X1889150Y17515715D01*
X2574993Y17556322D01*
X3020025Y17740660D01*
X3117530Y18027811D01*
X2130000Y19015341D01*
X2115858Y19001199D01*
X1896175Y19220882D01*
X1913961Y19260000D01*
X2374659Y19260000D01*
X3362189Y18272470D01*
X3649340Y18369975D01*
X3874285Y19019150D01*
X3833678Y19704993D01*
X3649340Y20150025D01*
X3362189Y20247530D01*
X2374659Y19260000D01*
X1913961Y19260000D01*
X1961406Y19364349D01*
X2115858Y19518801D01*
X2130000Y19504659D01*
X3117530Y20492189D01*
X3020025Y20779340D01*
X2752378Y20872082D01*
X3007105Y21303662D01*
X3064503Y21380808D01*
X3075849Y21353416D01*
X3913416Y20515849D01*
X5007750Y20062560D01*
X6192250Y20062560D01*
X7286584Y20515849D01*
X8124151Y21353416D01*
X8577440Y22447750D01*
X8577440Y23632250D01*
X8528946Y23749325D01*
X12964852Y23749325D01*
X13075531Y23482122D01*
X13527980Y23029673D01*
X13785014Y23029673D01*
X14755341Y24000000D01*
X13891080Y24864261D01*
X13634046Y24864261D01*
X13075532Y24305747D01*
X12964853Y24038544D01*
X12964852Y23749325D01*
X8528946Y23749325D01*
X8124151Y24726584D01*
X7484781Y25365954D01*
X14135739Y25365954D01*
X14135739Y25108920D01*
X15000000Y24244659D01*
X15970327Y25214986D01*
X15970327Y25472020D01*
X15517878Y25924469D01*
X15250675Y26035148D01*
X14961456Y26035147D01*
X14694253Y25924468D01*
X14135739Y25365954D01*
X7484781Y25365954D01*
X7425958Y25424777D01*
X8235090Y25872364D01*
X9529337Y26417744D01*
X10874210Y26822505D01*
X12254480Y27082063D01*
X13654517Y27193477D01*
X15058465Y27155488D01*
G04 #@! TD*
M02*
