G04 #@! TF.GenerationSoftware,KiCad,Pcbnew,5.0.2-bee76a0~70~ubuntu18.04.1*
G04 #@! TF.CreationDate,2019-06-02T21:51:08-04:00*
G04 #@! TF.ProjectId,AiLight Flasher,41694c69-6768-4742-9046-6c6173686572,rev?*
G04 #@! TF.SameCoordinates,PX510ff40PY6dac2c0*
G04 #@! TF.FileFunction,Copper,L2,Bot*
G04 #@! TF.FilePolarity,Positive*
%FSLAX46Y46*%
G04 Gerber Fmt 4.6, Leading zero omitted, Abs format (unit mm)*
G04 Created by KiCad (PCBNEW 5.0.2-bee76a0~70~ubuntu18.04.1) date Sun 02 Jun 2019 09:51:08 PM EDT*
%MOMM*%
%LPD*%
G01*
G04 APERTURE LIST*
G04 #@! TA.AperFunction,ComponentPad*
%ADD10C,4.500880*%
G04 #@! TD*
G04 #@! TA.AperFunction,ComponentPad*
%ADD11C,1.700000*%
G04 #@! TD*
G04 #@! TA.AperFunction,Conductor*
%ADD12C,0.050000*%
G04 #@! TD*
G04 #@! TA.AperFunction,Conductor*
%ADD13C,1.700000*%
G04 #@! TD*
G04 #@! TA.AperFunction,ComponentPad*
%ADD14C,1.800000*%
G04 #@! TD*
G04 #@! TA.AperFunction,Conductor*
%ADD15C,1.800000*%
G04 #@! TD*
G04 #@! TA.AperFunction,Conductor*
%ADD16C,0.500000*%
G04 #@! TD*
G04 #@! TA.AperFunction,Conductor*
%ADD17C,0.254000*%
G04 #@! TD*
G04 APERTURE END LIST*
D10*
G04 #@! TO.P,H1,1*
G04 #@! TO.N,N/C*
X6600000Y24040000D03*
G04 #@! TD*
G04 #@! TO.P,H2,1*
G04 #@! TO.N,N/C*
X23670000Y5690000D03*
G04 #@! TD*
D11*
G04 #@! TO.P,J6,1*
G04 #@! TO.N,GND*
X24474000Y15178000D03*
D12*
G04 #@! TD*
G04 #@! TO.N,GND*
G04 #@! TO.C,J6*
G36*
X24580066Y16486148D02*
X25782148Y15284066D01*
X24367934Y13869852D01*
X23165852Y15071934D01*
X24580066Y16486148D01*
X24580066Y16486148D01*
G37*
D11*
G04 #@! TO.P,J6,2*
G04 #@! TO.N,Net-(J6-Pad2)*
X22677949Y16974051D03*
D13*
G04 #@! TD*
G04 #@! TO.N,Net-(J6-Pad2)*
G04 #@! TO.C,J6*
X22854726Y17150828D02*
X22501172Y16797274D01*
D11*
G04 #@! TO.P,J6,3*
G04 #@! TO.N,3V3*
X20881898Y18770102D03*
D13*
G04 #@! TD*
G04 #@! TO.N,3V3*
G04 #@! TO.C,J6*
X21058675Y18946879D02*
X20705121Y18593325D01*
D11*
G04 #@! TO.P,J6,4*
G04 #@! TO.N,aRX*
X19085846Y20566154D03*
D13*
G04 #@! TD*
G04 #@! TO.N,aRX*
G04 #@! TO.C,J6*
X19262623Y20742931D02*
X18909069Y20389377D01*
D11*
G04 #@! TO.P,J6,5*
G04 #@! TO.N,aTX*
X17289795Y22362205D03*
D13*
G04 #@! TD*
G04 #@! TO.N,aTX*
G04 #@! TO.C,J6*
X17466572Y22538982D02*
X17113018Y22185428D01*
D11*
G04 #@! TO.P,J6,6*
G04 #@! TO.N,Net-(J6-Pad6)*
X15493744Y24158256D03*
D13*
G04 #@! TD*
G04 #@! TO.N,Net-(J6-Pad6)*
G04 #@! TO.C,J6*
X15670521Y24335033D02*
X15316967Y23981479D01*
D14*
G04 #@! TO.P,JP1,2*
G04 #@! TO.N,Net-(J2-Pad1)*
X11403949Y26003949D03*
D15*
G04 #@! TD*
G04 #@! TO.N,Net-(J2-Pad1)*
G04 #@! TO.C,JP1*
X11262528Y26145370D02*
X11545370Y25862528D01*
D14*
G04 #@! TO.P,JP1,1*
G04 #@! TO.N,GND*
X13200000Y27800000D03*
D12*
G04 #@! TD*
G04 #@! TO.N,GND*
G04 #@! TO.C,JP1*
G36*
X11785786Y27941421D02*
X13058579Y29214214D01*
X14614214Y27658579D01*
X13341421Y26385786D01*
X11785786Y27941421D01*
X11785786Y27941421D01*
G37*
D14*
G04 #@! TO.P,J1,1*
G04 #@! TO.N,GND*
X9690000Y3560000D03*
G04 #@! TD*
G04 #@! TO.P,J2,1*
G04 #@! TO.N,Net-(J2-Pad1)*
X3130000Y20260000D03*
G04 #@! TD*
G04 #@! TO.P,J3,1*
G04 #@! TO.N,3V3*
X2230000Y12630000D03*
G04 #@! TD*
G04 #@! TO.P,J4,1*
G04 #@! TO.N,aRX*
X6810000Y6070000D03*
G04 #@! TD*
G04 #@! TO.P,J5,1*
G04 #@! TO.N,aTX*
X5160000Y7720000D03*
G04 #@! TD*
D16*
G04 #@! TO.N,Net-(J2-Pad1)*
X3130000Y20260000D02*
X3470000Y20600000D01*
X11403949Y24586949D02*
X11403949Y26003949D01*
X3130000Y20260000D02*
X7077000Y20260000D01*
X7077000Y20260000D02*
X11403949Y24586949D01*
G04 #@! TO.N,3V3*
X22061000Y19949204D02*
X20881898Y18770102D01*
X22061000Y21147000D02*
X22061000Y19949204D01*
X16608000Y26600000D02*
X22061000Y21147000D01*
X15068000Y26600000D02*
X16608000Y26600000D01*
X2230000Y12630000D02*
X2230000Y13762000D01*
X2230000Y13762000D02*
X15068000Y26600000D01*
G04 #@! TO.N,aRX*
X18784204Y20600000D02*
X19592102Y21407898D01*
X18777692Y20258000D02*
X19085846Y20566154D01*
X7202000Y14628211D02*
X12831789Y20258000D01*
X12831789Y20258000D02*
X18777692Y20258000D01*
X6810000Y6070000D02*
X7202000Y6462000D01*
X7202000Y6462000D02*
X7202000Y14628211D01*
G04 #@! TO.N,aTX*
X16963590Y22036000D02*
X17289795Y22362205D01*
X12536000Y22036000D02*
X16963590Y22036000D01*
X5160000Y7720000D02*
X5160000Y14660000D01*
X5160000Y14660000D02*
X12536000Y22036000D01*
G04 #@! TO.N,Net-(J6-Pad2)*
X23184205Y17698205D02*
X23184205Y17815795D01*
G04 #@! TD*
D17*
G04 #@! TO.N,GND*
G36*
X16828640Y29079747D02*
X18266246Y28817194D01*
X19669249Y28408256D01*
X21022783Y27857266D01*
X22312511Y27170061D01*
X23524766Y26353923D01*
X24646708Y25417497D01*
X25666448Y24370704D01*
X26573184Y23224634D01*
X27357310Y21991430D01*
X28010518Y20684156D01*
X28525888Y19316661D01*
X28897959Y17903435D01*
X29122791Y16459448D01*
X29198000Y15000000D01*
X29197978Y14975220D01*
X29120222Y13515905D01*
X28892871Y12072313D01*
X28518333Y10659738D01*
X28000578Y9293145D01*
X27345089Y7987013D01*
X26558812Y6755179D01*
X26488320Y6666399D01*
X26194151Y7376584D01*
X25356584Y8214151D01*
X24262250Y8667440D01*
X23077750Y8667440D01*
X21983416Y8214151D01*
X21145849Y7376584D01*
X20692560Y6282250D01*
X20692560Y5097750D01*
X21145849Y4003416D01*
X21983416Y3165849D01*
X22495091Y2953906D01*
X22291259Y2817194D01*
X21000334Y2132242D01*
X19645840Y1583615D01*
X18242126Y1177127D01*
X16804063Y917083D01*
X15346888Y806238D01*
X13886038Y845768D01*
X12436989Y1035252D01*
X11015094Y1372684D01*
X9635417Y1854489D01*
X9501757Y1917242D01*
X10118960Y1957545D01*
X10519786Y2123573D01*
X10604967Y2400374D01*
X9690000Y3315341D01*
X8775033Y2400374D01*
X8826088Y2234468D01*
X8312573Y2475563D01*
X7060579Y3229325D01*
X6332567Y3776926D01*
X8045369Y3776926D01*
X8087545Y3131040D01*
X8253573Y2730214D01*
X8530374Y2645033D01*
X9445341Y3560000D01*
X9934659Y3560000D01*
X10849626Y2645033D01*
X11126427Y2730214D01*
X11334631Y3343074D01*
X11292455Y3988960D01*
X11126427Y4389786D01*
X10849626Y4474967D01*
X9934659Y3560000D01*
X9445341Y3560000D01*
X8530374Y4474967D01*
X8253573Y4389786D01*
X8045369Y3776926D01*
X6332567Y3776926D01*
X5892698Y4107789D01*
X4821303Y5101650D01*
X3857745Y6200377D01*
X3012232Y7392331D01*
X2293722Y8664883D01*
X1709827Y10004552D01*
X1314081Y11248334D01*
X1906370Y11003000D01*
X2553630Y11003000D01*
X3151622Y11250696D01*
X3609304Y11708378D01*
X3857000Y12306370D01*
X3857000Y12953630D01*
X3609304Y13551622D01*
X3505306Y13655620D01*
X4183001Y14333315D01*
X4183000Y9043926D01*
X3780696Y8641622D01*
X3533000Y8043630D01*
X3533000Y7396370D01*
X3780696Y6798378D01*
X4238378Y6340696D01*
X4836370Y6093000D01*
X5183000Y6093000D01*
X5183000Y5746370D01*
X5430696Y5148378D01*
X5888378Y4690696D01*
X6486370Y4443000D01*
X7133630Y4443000D01*
X7731622Y4690696D01*
X7760552Y4719626D01*
X8775033Y4719626D01*
X9690000Y3804659D01*
X10604967Y4719626D01*
X10519786Y4996427D01*
X9906926Y5204631D01*
X9261040Y5162455D01*
X8860214Y4996427D01*
X8775033Y4719626D01*
X7760552Y4719626D01*
X8189304Y5148378D01*
X8437000Y5746370D01*
X8437000Y6393630D01*
X8189304Y6991622D01*
X8179000Y7001926D01*
X8179000Y14223525D01*
X10285447Y16329971D01*
X10158861Y15888515D01*
X10078480Y14931278D01*
X10185558Y13976659D01*
X10476016Y13061018D01*
X10938791Y12219232D01*
X11556257Y11483365D01*
X12304894Y10881446D01*
X13156186Y10436401D01*
X14077709Y10165182D01*
X15034362Y10078120D01*
X15989706Y10178531D01*
X16907352Y10462590D01*
X17752347Y10919477D01*
X18492507Y11531790D01*
X19099638Y12276207D01*
X19550616Y13124372D01*
X19803816Y13963014D01*
X23503673Y13963014D01*
X23503673Y13705980D01*
X23956122Y13253531D01*
X24223325Y13142852D01*
X24512544Y13142853D01*
X24779747Y13253532D01*
X25338261Y13812046D01*
X25338261Y14069080D01*
X24474000Y14933341D01*
X23503673Y13963014D01*
X19803816Y13963014D01*
X19828261Y14043979D01*
X19922000Y15000000D01*
X19920081Y15137430D01*
X19799685Y16090462D01*
X19496471Y17001958D01*
X19021987Y17837200D01*
X18394307Y18564374D01*
X17637339Y19155782D01*
X17389450Y19281000D01*
X17753022Y19281000D01*
X17772116Y19252424D01*
X18293755Y18903876D01*
X18909069Y18781483D01*
X19143947Y18828203D01*
X19097227Y18593325D01*
X19219620Y17978011D01*
X19568168Y17456372D01*
X20089807Y17107824D01*
X20705121Y16985431D01*
X20939998Y17032151D01*
X20893278Y16797274D01*
X21015671Y16181960D01*
X21364219Y15660321D01*
X21885858Y15311773D01*
X22438853Y15201776D01*
X22438852Y14927325D01*
X22549531Y14660122D01*
X23001980Y14207673D01*
X23259014Y14207673D01*
X24229341Y15178000D01*
X24718659Y15178000D01*
X25582920Y14313739D01*
X25839954Y14313739D01*
X26398468Y14872253D01*
X26509147Y15139456D01*
X26509148Y15428675D01*
X26398469Y15695878D01*
X25946020Y16148327D01*
X25688986Y16148327D01*
X24718659Y15178000D01*
X24229341Y15178000D01*
X24215199Y15192142D01*
X24459858Y15436801D01*
X24474000Y15422659D01*
X25444327Y16392986D01*
X25444327Y16650020D01*
X24991878Y17102469D01*
X24724675Y17213148D01*
X24450224Y17213147D01*
X24340227Y17766142D01*
X24126637Y18085803D01*
X24104518Y18197000D01*
X23888582Y18520172D01*
X23565411Y18736108D01*
X23184205Y18811935D01*
X22885707Y18752560D01*
X22854726Y18758722D01*
X22619849Y18712002D01*
X22666569Y18946879D01*
X22629039Y19135556D01*
X22683806Y19190323D01*
X22765377Y19244827D01*
X22819881Y19326398D01*
X22819883Y19326400D01*
X22935288Y19499117D01*
X22981313Y19567998D01*
X23038000Y19852981D01*
X23038000Y19852985D01*
X23057139Y19949203D01*
X23038000Y20045421D01*
X23038000Y21050781D01*
X23057139Y21147000D01*
X23038000Y21243219D01*
X23038000Y21243223D01*
X22981313Y21528206D01*
X22907080Y21639304D01*
X22819883Y21769804D01*
X22819881Y21769806D01*
X22765377Y21851377D01*
X22683806Y21905881D01*
X17366883Y27222803D01*
X17312377Y27304377D01*
X16989206Y27520313D01*
X16704223Y27577000D01*
X16704218Y27577000D01*
X16608000Y27596139D01*
X16511782Y27577000D01*
X15341214Y27577000D01*
X15341213Y27803188D01*
X15230534Y28070391D01*
X14601309Y28699617D01*
X14344276Y28699617D01*
X13444659Y27800000D01*
X13458801Y27785858D01*
X13214142Y27541199D01*
X13200000Y27555341D01*
X13185858Y27541199D01*
X12941199Y27785858D01*
X12955341Y27800000D01*
X12941199Y27814142D01*
X13185858Y28058801D01*
X13200000Y28044659D01*
X14099617Y28944276D01*
X14099617Y29160936D01*
X15371660Y29193135D01*
X16828640Y29079747D01*
X16828640Y29079747D01*
G37*
X16828640Y29079747D02*
X18266246Y28817194D01*
X19669249Y28408256D01*
X21022783Y27857266D01*
X22312511Y27170061D01*
X23524766Y26353923D01*
X24646708Y25417497D01*
X25666448Y24370704D01*
X26573184Y23224634D01*
X27357310Y21991430D01*
X28010518Y20684156D01*
X28525888Y19316661D01*
X28897959Y17903435D01*
X29122791Y16459448D01*
X29198000Y15000000D01*
X29197978Y14975220D01*
X29120222Y13515905D01*
X28892871Y12072313D01*
X28518333Y10659738D01*
X28000578Y9293145D01*
X27345089Y7987013D01*
X26558812Y6755179D01*
X26488320Y6666399D01*
X26194151Y7376584D01*
X25356584Y8214151D01*
X24262250Y8667440D01*
X23077750Y8667440D01*
X21983416Y8214151D01*
X21145849Y7376584D01*
X20692560Y6282250D01*
X20692560Y5097750D01*
X21145849Y4003416D01*
X21983416Y3165849D01*
X22495091Y2953906D01*
X22291259Y2817194D01*
X21000334Y2132242D01*
X19645840Y1583615D01*
X18242126Y1177127D01*
X16804063Y917083D01*
X15346888Y806238D01*
X13886038Y845768D01*
X12436989Y1035252D01*
X11015094Y1372684D01*
X9635417Y1854489D01*
X9501757Y1917242D01*
X10118960Y1957545D01*
X10519786Y2123573D01*
X10604967Y2400374D01*
X9690000Y3315341D01*
X8775033Y2400374D01*
X8826088Y2234468D01*
X8312573Y2475563D01*
X7060579Y3229325D01*
X6332567Y3776926D01*
X8045369Y3776926D01*
X8087545Y3131040D01*
X8253573Y2730214D01*
X8530374Y2645033D01*
X9445341Y3560000D01*
X9934659Y3560000D01*
X10849626Y2645033D01*
X11126427Y2730214D01*
X11334631Y3343074D01*
X11292455Y3988960D01*
X11126427Y4389786D01*
X10849626Y4474967D01*
X9934659Y3560000D01*
X9445341Y3560000D01*
X8530374Y4474967D01*
X8253573Y4389786D01*
X8045369Y3776926D01*
X6332567Y3776926D01*
X5892698Y4107789D01*
X4821303Y5101650D01*
X3857745Y6200377D01*
X3012232Y7392331D01*
X2293722Y8664883D01*
X1709827Y10004552D01*
X1314081Y11248334D01*
X1906370Y11003000D01*
X2553630Y11003000D01*
X3151622Y11250696D01*
X3609304Y11708378D01*
X3857000Y12306370D01*
X3857000Y12953630D01*
X3609304Y13551622D01*
X3505306Y13655620D01*
X4183001Y14333315D01*
X4183000Y9043926D01*
X3780696Y8641622D01*
X3533000Y8043630D01*
X3533000Y7396370D01*
X3780696Y6798378D01*
X4238378Y6340696D01*
X4836370Y6093000D01*
X5183000Y6093000D01*
X5183000Y5746370D01*
X5430696Y5148378D01*
X5888378Y4690696D01*
X6486370Y4443000D01*
X7133630Y4443000D01*
X7731622Y4690696D01*
X7760552Y4719626D01*
X8775033Y4719626D01*
X9690000Y3804659D01*
X10604967Y4719626D01*
X10519786Y4996427D01*
X9906926Y5204631D01*
X9261040Y5162455D01*
X8860214Y4996427D01*
X8775033Y4719626D01*
X7760552Y4719626D01*
X8189304Y5148378D01*
X8437000Y5746370D01*
X8437000Y6393630D01*
X8189304Y6991622D01*
X8179000Y7001926D01*
X8179000Y14223525D01*
X10285447Y16329971D01*
X10158861Y15888515D01*
X10078480Y14931278D01*
X10185558Y13976659D01*
X10476016Y13061018D01*
X10938791Y12219232D01*
X11556257Y11483365D01*
X12304894Y10881446D01*
X13156186Y10436401D01*
X14077709Y10165182D01*
X15034362Y10078120D01*
X15989706Y10178531D01*
X16907352Y10462590D01*
X17752347Y10919477D01*
X18492507Y11531790D01*
X19099638Y12276207D01*
X19550616Y13124372D01*
X19803816Y13963014D01*
X23503673Y13963014D01*
X23503673Y13705980D01*
X23956122Y13253531D01*
X24223325Y13142852D01*
X24512544Y13142853D01*
X24779747Y13253532D01*
X25338261Y13812046D01*
X25338261Y14069080D01*
X24474000Y14933341D01*
X23503673Y13963014D01*
X19803816Y13963014D01*
X19828261Y14043979D01*
X19922000Y15000000D01*
X19920081Y15137430D01*
X19799685Y16090462D01*
X19496471Y17001958D01*
X19021987Y17837200D01*
X18394307Y18564374D01*
X17637339Y19155782D01*
X17389450Y19281000D01*
X17753022Y19281000D01*
X17772116Y19252424D01*
X18293755Y18903876D01*
X18909069Y18781483D01*
X19143947Y18828203D01*
X19097227Y18593325D01*
X19219620Y17978011D01*
X19568168Y17456372D01*
X20089807Y17107824D01*
X20705121Y16985431D01*
X20939998Y17032151D01*
X20893278Y16797274D01*
X21015671Y16181960D01*
X21364219Y15660321D01*
X21885858Y15311773D01*
X22438853Y15201776D01*
X22438852Y14927325D01*
X22549531Y14660122D01*
X23001980Y14207673D01*
X23259014Y14207673D01*
X24229341Y15178000D01*
X24718659Y15178000D01*
X25582920Y14313739D01*
X25839954Y14313739D01*
X26398468Y14872253D01*
X26509147Y15139456D01*
X26509148Y15428675D01*
X26398469Y15695878D01*
X25946020Y16148327D01*
X25688986Y16148327D01*
X24718659Y15178000D01*
X24229341Y15178000D01*
X24215199Y15192142D01*
X24459858Y15436801D01*
X24474000Y15422659D01*
X25444327Y16392986D01*
X25444327Y16650020D01*
X24991878Y17102469D01*
X24724675Y17213148D01*
X24450224Y17213147D01*
X24340227Y17766142D01*
X24126637Y18085803D01*
X24104518Y18197000D01*
X23888582Y18520172D01*
X23565411Y18736108D01*
X23184205Y18811935D01*
X22885707Y18752560D01*
X22854726Y18758722D01*
X22619849Y18712002D01*
X22666569Y18946879D01*
X22629039Y19135556D01*
X22683806Y19190323D01*
X22765377Y19244827D01*
X22819881Y19326398D01*
X22819883Y19326400D01*
X22935288Y19499117D01*
X22981313Y19567998D01*
X23038000Y19852981D01*
X23038000Y19852985D01*
X23057139Y19949203D01*
X23038000Y20045421D01*
X23038000Y21050781D01*
X23057139Y21147000D01*
X23038000Y21243219D01*
X23038000Y21243223D01*
X22981313Y21528206D01*
X22907080Y21639304D01*
X22819883Y21769804D01*
X22819881Y21769806D01*
X22765377Y21851377D01*
X22683806Y21905881D01*
X17366883Y27222803D01*
X17312377Y27304377D01*
X16989206Y27520313D01*
X16704223Y27577000D01*
X16704218Y27577000D01*
X16608000Y27596139D01*
X16511782Y27577000D01*
X15341214Y27577000D01*
X15341213Y27803188D01*
X15230534Y28070391D01*
X14601309Y28699617D01*
X14344276Y28699617D01*
X13444659Y27800000D01*
X13458801Y27785858D01*
X13214142Y27541199D01*
X13200000Y27555341D01*
X13185858Y27541199D01*
X12941199Y27785858D01*
X12955341Y27800000D01*
X12941199Y27814142D01*
X13185858Y28058801D01*
X13200000Y28044659D01*
X14099617Y28944276D01*
X14099617Y29160936D01*
X15371660Y29193135D01*
X16828640Y29079747D01*
G04 #@! TD*
M02*
