G04 #@! TF.GenerationSoftware,KiCad,Pcbnew,5.0.2-bee76a0~70~ubuntu18.04.1*
G04 #@! TF.CreationDate,2019-06-02T17:18:19-04:00*
G04 #@! TF.ProjectId,AiLight Flasher,41694c69-6768-4742-9046-6c6173686572,rev?*
G04 #@! TF.SameCoordinates,PX5204180PY6cb8080*
G04 #@! TF.FileFunction,Legend,Top*
G04 #@! TF.FilePolarity,Positive*
%FSLAX46Y46*%
G04 Gerber Fmt 4.6, Leading zero omitted, Abs format (unit mm)*
G04 Created by KiCad (PCBNEW 5.0.2-bee76a0~70~ubuntu18.04.1) date Sun 02 Jun 2019 05:18:19 PM EDT*
%MOMM*%
%LPD*%
G01*
G04 APERTURE LIST*
%ADD10C,0.300000*%
%ADD11C,0.120000*%
G04 APERTURE END LIST*
D10*
X8550000Y19821429D02*
X8550000Y18535715D01*
X8478571Y18392858D01*
X8335714Y18321429D01*
X8264285Y18321429D01*
X8550000Y20321429D02*
X8478571Y20250000D01*
X8550000Y20178572D01*
X8621428Y20250000D01*
X8550000Y20321429D01*
X8550000Y20178572D01*
X9264285Y18821429D02*
X9264285Y20321429D01*
X9835714Y20321429D01*
X9978571Y20250000D01*
X10050000Y20178572D01*
X10121428Y20035715D01*
X10121428Y19821429D01*
X10050000Y19678572D01*
X9978571Y19607143D01*
X9835714Y19535715D01*
X9264285Y19535715D01*
X11621428Y18821429D02*
X11121428Y19535715D01*
X10764285Y18821429D02*
X10764285Y20321429D01*
X11335714Y20321429D01*
X11478571Y20250000D01*
X11550000Y20178572D01*
X11621428Y20035715D01*
X11621428Y19821429D01*
X11550000Y19678572D01*
X11478571Y19607143D01*
X11335714Y19535715D01*
X10764285Y19535715D01*
X13050000Y20250000D02*
X12907142Y20321429D01*
X12692857Y20321429D01*
X12478571Y20250000D01*
X12335714Y20107143D01*
X12264285Y19964286D01*
X12192857Y19678572D01*
X12192857Y19464286D01*
X12264285Y19178572D01*
X12335714Y19035715D01*
X12478571Y18892858D01*
X12692857Y18821429D01*
X12835714Y18821429D01*
X13050000Y18892858D01*
X13121428Y18964286D01*
X13121428Y19464286D01*
X12835714Y19464286D01*
X20270473Y23131558D02*
X19799068Y23602962D01*
X19058290Y22862184D02*
X20472503Y24276397D01*
X21145938Y23602962D01*
X21482656Y23266245D02*
X22290778Y22458123D01*
X20472503Y21447970D02*
X21886717Y22862184D01*
X21347969Y20572504D02*
X22762183Y21986718D01*
X23098900Y21650000D01*
X23233587Y21380626D01*
X23233587Y21111252D01*
X23166244Y20909222D01*
X22964213Y20572504D01*
X22762183Y20370474D01*
X22425465Y20168443D01*
X22223435Y20101100D01*
X21954061Y20101100D01*
X21684687Y20235787D01*
X21347969Y20572504D01*
X22762183Y19158291D02*
X24176396Y20572504D01*
X4990476Y8566667D02*
X5942857Y8566667D01*
X4800000Y7995239D02*
X5466666Y9995239D01*
X6133333Y7995239D01*
X6800000Y7995239D02*
X6800000Y9328572D01*
X6800000Y9995239D02*
X6704761Y9900000D01*
X6800000Y9804762D01*
X6895238Y9900000D01*
X6800000Y9995239D01*
X6800000Y9804762D01*
X8704761Y7995239D02*
X7752380Y7995239D01*
X7752380Y9995239D01*
X9371428Y7995239D02*
X9371428Y9328572D01*
X9371428Y9995239D02*
X9276190Y9900000D01*
X9371428Y9804762D01*
X9466666Y9900000D01*
X9371428Y9995239D01*
X9371428Y9804762D01*
X11180952Y9328572D02*
X11180952Y7709524D01*
X11085714Y7519048D01*
X10990476Y7423810D01*
X10800000Y7328572D01*
X10514285Y7328572D01*
X10323809Y7423810D01*
X11180952Y8090477D02*
X10990476Y7995239D01*
X10609523Y7995239D01*
X10419047Y8090477D01*
X10323809Y8185715D01*
X10228571Y8376191D01*
X10228571Y8947620D01*
X10323809Y9138096D01*
X10419047Y9233334D01*
X10609523Y9328572D01*
X10990476Y9328572D01*
X11180952Y9233334D01*
X12133333Y7995239D02*
X12133333Y9995239D01*
X12990476Y7995239D02*
X12990476Y9042858D01*
X12895238Y9233334D01*
X12704761Y9328572D01*
X12419047Y9328572D01*
X12228571Y9233334D01*
X12133333Y9138096D01*
X13657142Y9328572D02*
X14419047Y9328572D01*
X13942857Y9995239D02*
X13942857Y8280953D01*
X14038095Y8090477D01*
X14228571Y7995239D01*
X14419047Y7995239D01*
X14800000Y9328572D02*
X15561904Y9328572D01*
X15085714Y7995239D02*
X15085714Y9709524D01*
X15180952Y9900000D01*
X15371428Y9995239D01*
X15561904Y9995239D01*
X16514285Y7995239D02*
X16323809Y8090477D01*
X16228571Y8280953D01*
X16228571Y9995239D01*
X18133333Y7995239D02*
X18133333Y9042858D01*
X18038095Y9233334D01*
X17847619Y9328572D01*
X17466666Y9328572D01*
X17276190Y9233334D01*
X18133333Y8090477D02*
X17942857Y7995239D01*
X17466666Y7995239D01*
X17276190Y8090477D01*
X17180952Y8280953D01*
X17180952Y8471429D01*
X17276190Y8661905D01*
X17466666Y8757143D01*
X17942857Y8757143D01*
X18133333Y8852381D01*
X18990476Y8090477D02*
X19180952Y7995239D01*
X19561904Y7995239D01*
X19752380Y8090477D01*
X19847619Y8280953D01*
X19847619Y8376191D01*
X19752380Y8566667D01*
X19561904Y8661905D01*
X19276190Y8661905D01*
X19085714Y8757143D01*
X18990476Y8947620D01*
X18990476Y9042858D01*
X19085714Y9233334D01*
X19276190Y9328572D01*
X19561904Y9328572D01*
X19752380Y9233334D01*
X20704761Y7995239D02*
X20704761Y9995239D01*
X21561904Y7995239D02*
X21561904Y9042858D01*
X21466666Y9233334D01*
X21276190Y9328572D01*
X20990476Y9328572D01*
X20800000Y9233334D01*
X20704761Y9138096D01*
X23276190Y8090477D02*
X23085714Y7995239D01*
X22704761Y7995239D01*
X22514285Y8090477D01*
X22419047Y8280953D01*
X22419047Y9042858D01*
X22514285Y9233334D01*
X22704761Y9328572D01*
X23085714Y9328572D01*
X23276190Y9233334D01*
X23371428Y9042858D01*
X23371428Y8852381D01*
X22419047Y8661905D01*
X24228571Y7995239D02*
X24228571Y9328572D01*
X24228571Y8947620D02*
X24323809Y9138096D01*
X24419047Y9233334D01*
X24609523Y9328572D01*
X24800000Y9328572D01*
X10609523Y4790477D02*
X10419047Y4695239D01*
X10038095Y4695239D01*
X9847619Y4790477D01*
X9752380Y4885715D01*
X9657142Y5076191D01*
X9657142Y5647620D01*
X9752380Y5838096D01*
X9847619Y5933334D01*
X10038095Y6028572D01*
X10419047Y6028572D01*
X10609523Y5933334D01*
X11466666Y6028572D02*
X11466666Y4028572D01*
X11466666Y5933334D02*
X11657142Y6028572D01*
X12038095Y6028572D01*
X12228571Y5933334D01*
X12323809Y5838096D01*
X12419047Y5647620D01*
X12419047Y5076191D01*
X12323809Y4885715D01*
X12228571Y4790477D01*
X12038095Y4695239D01*
X11657142Y4695239D01*
X11466666Y4790477D01*
X14038095Y4790477D02*
X13847619Y4695239D01*
X13466666Y4695239D01*
X13276190Y4790477D01*
X13180952Y4980953D01*
X13180952Y5742858D01*
X13276190Y5933334D01*
X13466666Y6028572D01*
X13847619Y6028572D01*
X14038095Y5933334D01*
X14133333Y5742858D01*
X14133333Y5552381D01*
X13180952Y5361905D01*
X14990476Y4695239D02*
X14990476Y6028572D01*
X14990476Y5647620D02*
X15085714Y5838096D01*
X15180952Y5933334D01*
X15371428Y6028572D01*
X15561904Y6028572D01*
X16228571Y4695239D02*
X16228571Y6028572D01*
X16228571Y6695239D02*
X16133333Y6600000D01*
X16228571Y6504762D01*
X16323809Y6600000D01*
X16228571Y6695239D01*
X16228571Y6504762D01*
X17466666Y4695239D02*
X17276190Y4790477D01*
X17180952Y4885715D01*
X17085714Y5076191D01*
X17085714Y5647620D01*
X17180952Y5838096D01*
X17276190Y5933334D01*
X17466666Y6028572D01*
X17752380Y6028572D01*
X17942857Y5933334D01*
X18038095Y5838096D01*
X18133333Y5647620D01*
X18133333Y5076191D01*
X18038095Y4885715D01*
X17942857Y4790477D01*
X17752380Y4695239D01*
X17466666Y4695239D01*
X19847619Y4695239D02*
X19847619Y6695239D01*
X19847619Y4790477D02*
X19657142Y4695239D01*
X19276190Y4695239D01*
X19085714Y4790477D01*
X18990476Y4885715D01*
X18895238Y5076191D01*
X18895238Y5647620D01*
X18990476Y5838096D01*
X19085714Y5933334D01*
X19276190Y6028572D01*
X19657142Y6028572D01*
X19847619Y5933334D01*
X11371428Y3204762D02*
X11466666Y3300000D01*
X11657142Y3395239D01*
X12133333Y3395239D01*
X12323809Y3300000D01*
X12419047Y3204762D01*
X12514285Y3014286D01*
X12514285Y2823810D01*
X12419047Y2538096D01*
X11276190Y1395239D01*
X12514285Y1395239D01*
X13752380Y3395239D02*
X13942857Y3395239D01*
X14133333Y3300000D01*
X14228571Y3204762D01*
X14323809Y3014286D01*
X14419047Y2633334D01*
X14419047Y2157143D01*
X14323809Y1776191D01*
X14228571Y1585715D01*
X14133333Y1490477D01*
X13942857Y1395239D01*
X13752380Y1395239D01*
X13561904Y1490477D01*
X13466666Y1585715D01*
X13371428Y1776191D01*
X13276190Y2157143D01*
X13276190Y2633334D01*
X13371428Y3014286D01*
X13466666Y3204762D01*
X13561904Y3300000D01*
X13752380Y3395239D01*
X16323809Y1395239D02*
X15180952Y1395239D01*
X15752380Y1395239D02*
X15752380Y3395239D01*
X15561904Y3109524D01*
X15371428Y2919048D01*
X15180952Y2823810D01*
X17276190Y1395239D02*
X17657142Y1395239D01*
X17847619Y1490477D01*
X17942857Y1585715D01*
X18133333Y1871429D01*
X18228571Y2252381D01*
X18228571Y3014286D01*
X18133333Y3204762D01*
X18038095Y3300000D01*
X17847619Y3395239D01*
X17466666Y3395239D01*
X17276190Y3300000D01*
X17180952Y3204762D01*
X17085714Y3014286D01*
X17085714Y2538096D01*
X17180952Y2347620D01*
X17276190Y2252381D01*
X17466666Y2157143D01*
X17847619Y2157143D01*
X18038095Y2252381D01*
X18133333Y2347620D01*
X18228571Y2538096D01*
X17202538Y26808123D02*
X17152030Y26959645D01*
X17000507Y27111168D01*
X16798477Y27212184D01*
X16596446Y27212184D01*
X16444923Y27161676D01*
X16192385Y27010153D01*
X16040862Y26858630D01*
X15889339Y26606092D01*
X15838832Y26454569D01*
X15838832Y26252539D01*
X15939847Y26050508D01*
X16040862Y25949493D01*
X16242893Y25848478D01*
X16343908Y25848478D01*
X16697461Y26202031D01*
X16495431Y26404062D01*
X16697461Y25292894D02*
X17758122Y26353554D01*
X17303553Y24686802D01*
X18364213Y25747462D01*
D11*
G04 #@! TO.C,J1*
X9890000Y2560000D02*
G75*
G03X9890000Y2560000I-1200000J0D01*
G01*
G04 #@! TO.C,J2*
X3330000Y19260000D02*
G75*
G03X3330000Y19260000I-1200000J0D01*
G01*
G04 #@! TO.C,J3*
X2430000Y11630000D02*
G75*
G03X2430000Y11630000I-1200000J0D01*
G01*
G04 #@! TO.C,J4*
X7010000Y5070000D02*
G75*
G03X7010000Y5070000I-1200000J0D01*
G01*
G04 #@! TO.C,J5*
X5360000Y6720000D02*
G75*
G03X5360000Y6720000I-1200000J0D01*
G01*
G04 #@! TO.C,J6*
X14957574Y22161522D02*
X23980256Y13138840D01*
X23980256Y13138840D02*
X25861160Y15019744D01*
X25861160Y15019744D02*
X16838478Y24042426D01*
X16838478Y24042426D02*
X14957574Y22161522D01*
X14059548Y23059548D02*
X13119096Y24000000D01*
X13119096Y24000000D02*
X14059548Y24940452D01*
G04 #@! TO.C,JP1*
X9370000Y26130000D02*
X10700000Y26130000D01*
X9370000Y24800000D02*
X9370000Y26130000D01*
X12030000Y23530000D02*
X9370000Y23530000D01*
X12030000Y20930000D02*
X12030000Y23530000D01*
X9370000Y20930000D02*
X12030000Y20930000D01*
X9370000Y23530000D02*
X9370000Y20930000D01*
G04 #@! TD*
M02*
