G04 #@! TF.GenerationSoftware,KiCad,Pcbnew,5.0.2-bee76a0~70~ubuntu18.04.1*
G04 #@! TF.CreationDate,2019-06-02T21:51:08-04:00*
G04 #@! TF.ProjectId,AiLight Flasher,41694c69-6768-4742-9046-6c6173686572,rev?*
G04 #@! TF.SameCoordinates,PX510ff40PY6dac2c0*
G04 #@! TF.FileFunction,Legend,Top*
G04 #@! TF.FilePolarity,Positive*
%FSLAX46Y46*%
G04 Gerber Fmt 4.6, Leading zero omitted, Abs format (unit mm)*
G04 Created by KiCad (PCBNEW 5.0.2-bee76a0~70~ubuntu18.04.1) date Sun 02 Jun 2019 09:51:08 PM EDT*
%MOMM*%
%LPD*%
G01*
G04 APERTURE LIST*
%ADD10C,0.300000*%
%ADD11C,0.120000*%
%ADD12C,0.150000*%
G04 APERTURE END LIST*
D10*
X8741370Y19981726D02*
X7680710Y21042386D01*
X8084771Y21446447D01*
X8236294Y21496955D01*
X8337309Y21496955D01*
X8488832Y21446447D01*
X8640355Y21294924D01*
X8690862Y21143401D01*
X8690862Y21042386D01*
X8640355Y20890863D01*
X8236294Y20486802D01*
X10408122Y21648478D02*
X9549492Y21800000D01*
X9802030Y21042386D02*
X8741370Y22103046D01*
X9145431Y22507107D01*
X9296954Y22557615D01*
X9397969Y22557615D01*
X9549492Y22507107D01*
X9701015Y22355584D01*
X9751522Y22204062D01*
X9751522Y22103046D01*
X9701015Y21951523D01*
X9296954Y21547462D01*
X10408122Y23668783D02*
X10256599Y23618275D01*
X10105076Y23466752D01*
X10004061Y23264722D01*
X10004061Y23062691D01*
X10054568Y22911168D01*
X10206091Y22658630D01*
X10357614Y22507107D01*
X10610152Y22355584D01*
X10761675Y22305077D01*
X10963705Y22305077D01*
X11165736Y22406092D01*
X11266751Y22507107D01*
X11367766Y22709138D01*
X11367766Y22810153D01*
X11014213Y23163706D01*
X10812183Y22961676D01*
X20920473Y23281558D02*
X20449068Y23752962D01*
X19708290Y23012184D02*
X21122503Y24426397D01*
X21795938Y23752962D01*
X22132656Y23416245D02*
X22940778Y22608123D01*
X21122503Y21597970D02*
X22536717Y23012184D01*
X21997969Y20722504D02*
X23412183Y22136718D01*
X23748900Y21800000D01*
X23883587Y21530626D01*
X23883587Y21261252D01*
X23816244Y21059222D01*
X23614213Y20722504D01*
X23412183Y20520474D01*
X23075465Y20318443D01*
X22873435Y20251100D01*
X22604061Y20251100D01*
X22334687Y20385787D01*
X21997969Y20722504D01*
X23412183Y19308291D02*
X24826396Y20722504D01*
X5504761Y9366667D02*
X6457142Y9366667D01*
X5314285Y8795239D02*
X5980952Y10795239D01*
X6647619Y8795239D01*
X7314285Y8795239D02*
X7314285Y10128572D01*
X7314285Y10795239D02*
X7219047Y10700000D01*
X7314285Y10604762D01*
X7409523Y10700000D01*
X7314285Y10795239D01*
X7314285Y10604762D01*
X9219047Y8795239D02*
X8266666Y8795239D01*
X8266666Y10795239D01*
X9885714Y8795239D02*
X9885714Y10128572D01*
X9885714Y10795239D02*
X9790476Y10700000D01*
X9885714Y10604762D01*
X9980952Y10700000D01*
X9885714Y10795239D01*
X9885714Y10604762D01*
X11695238Y10128572D02*
X11695238Y8509524D01*
X11600000Y8319048D01*
X11504761Y8223810D01*
X11314285Y8128572D01*
X11028571Y8128572D01*
X10838095Y8223810D01*
X11695238Y8890477D02*
X11504761Y8795239D01*
X11123809Y8795239D01*
X10933333Y8890477D01*
X10838095Y8985715D01*
X10742857Y9176191D01*
X10742857Y9747620D01*
X10838095Y9938096D01*
X10933333Y10033334D01*
X11123809Y10128572D01*
X11504761Y10128572D01*
X11695238Y10033334D01*
X12647619Y8795239D02*
X12647619Y10795239D01*
X13504761Y8795239D02*
X13504761Y9842858D01*
X13409523Y10033334D01*
X13219047Y10128572D01*
X12933333Y10128572D01*
X12742857Y10033334D01*
X12647619Y9938096D01*
X14171428Y10128572D02*
X14933333Y10128572D01*
X14457142Y10795239D02*
X14457142Y9080953D01*
X14552380Y8890477D01*
X14742857Y8795239D01*
X14933333Y8795239D01*
X16266666Y9842858D02*
X15600000Y9842858D01*
X15600000Y8795239D02*
X15600000Y10795239D01*
X16552380Y10795239D01*
X17600000Y8795239D02*
X17409523Y8890477D01*
X17314285Y9080953D01*
X17314285Y10795239D01*
X19219047Y8795239D02*
X19219047Y9842858D01*
X19123809Y10033334D01*
X18933333Y10128572D01*
X18552380Y10128572D01*
X18361904Y10033334D01*
X19219047Y8890477D02*
X19028571Y8795239D01*
X18552380Y8795239D01*
X18361904Y8890477D01*
X18266666Y9080953D01*
X18266666Y9271429D01*
X18361904Y9461905D01*
X18552380Y9557143D01*
X19028571Y9557143D01*
X19219047Y9652381D01*
X20076190Y8890477D02*
X20266666Y8795239D01*
X20647619Y8795239D01*
X20838095Y8890477D01*
X20933333Y9080953D01*
X20933333Y9176191D01*
X20838095Y9366667D01*
X20647619Y9461905D01*
X20361904Y9461905D01*
X20171428Y9557143D01*
X20076190Y9747620D01*
X20076190Y9842858D01*
X20171428Y10033334D01*
X20361904Y10128572D01*
X20647619Y10128572D01*
X20838095Y10033334D01*
X21790476Y8795239D02*
X21790476Y10795239D01*
X22647619Y8795239D02*
X22647619Y9842858D01*
X22552380Y10033334D01*
X22361904Y10128572D01*
X22076190Y10128572D01*
X21885714Y10033334D01*
X21790476Y9938096D01*
X24361904Y8890477D02*
X24171428Y8795239D01*
X23790476Y8795239D01*
X23600000Y8890477D01*
X23504761Y9080953D01*
X23504761Y9842858D01*
X23600000Y10033334D01*
X23790476Y10128572D01*
X24171428Y10128572D01*
X24361904Y10033334D01*
X24457142Y9842858D01*
X24457142Y9652381D01*
X23504761Y9461905D01*
X25314285Y8795239D02*
X25314285Y10128572D01*
X25314285Y9747620D02*
X25409523Y9938096D01*
X25504761Y10033334D01*
X25695238Y10128572D01*
X25885714Y10128572D01*
X11409523Y5590477D02*
X11219047Y5495239D01*
X10838095Y5495239D01*
X10647619Y5590477D01*
X10552380Y5685715D01*
X10457142Y5876191D01*
X10457142Y6447620D01*
X10552380Y6638096D01*
X10647619Y6733334D01*
X10838095Y6828572D01*
X11219047Y6828572D01*
X11409523Y6733334D01*
X12266666Y6828572D02*
X12266666Y4828572D01*
X12266666Y6733334D02*
X12457142Y6828572D01*
X12838095Y6828572D01*
X13028571Y6733334D01*
X13123809Y6638096D01*
X13219047Y6447620D01*
X13219047Y5876191D01*
X13123809Y5685715D01*
X13028571Y5590477D01*
X12838095Y5495239D01*
X12457142Y5495239D01*
X12266666Y5590477D01*
X14838095Y5590477D02*
X14647619Y5495239D01*
X14266666Y5495239D01*
X14076190Y5590477D01*
X13980952Y5780953D01*
X13980952Y6542858D01*
X14076190Y6733334D01*
X14266666Y6828572D01*
X14647619Y6828572D01*
X14838095Y6733334D01*
X14933333Y6542858D01*
X14933333Y6352381D01*
X13980952Y6161905D01*
X15790476Y5495239D02*
X15790476Y6828572D01*
X15790476Y6447620D02*
X15885714Y6638096D01*
X15980952Y6733334D01*
X16171428Y6828572D01*
X16361904Y6828572D01*
X17028571Y5495239D02*
X17028571Y6828572D01*
X17028571Y7495239D02*
X16933333Y7400000D01*
X17028571Y7304762D01*
X17123809Y7400000D01*
X17028571Y7495239D01*
X17028571Y7304762D01*
X18266666Y5495239D02*
X18076190Y5590477D01*
X17980952Y5685715D01*
X17885714Y5876191D01*
X17885714Y6447620D01*
X17980952Y6638096D01*
X18076190Y6733334D01*
X18266666Y6828572D01*
X18552380Y6828572D01*
X18742857Y6733334D01*
X18838095Y6638096D01*
X18933333Y6447620D01*
X18933333Y5876191D01*
X18838095Y5685715D01*
X18742857Y5590477D01*
X18552380Y5495239D01*
X18266666Y5495239D01*
X20647619Y5495239D02*
X20647619Y7495239D01*
X20647619Y5590477D02*
X20457142Y5495239D01*
X20076190Y5495239D01*
X19885714Y5590477D01*
X19790476Y5685715D01*
X19695238Y5876191D01*
X19695238Y6447620D01*
X19790476Y6638096D01*
X19885714Y6733334D01*
X20076190Y6828572D01*
X20457142Y6828572D01*
X20647619Y6733334D01*
X12171428Y4004762D02*
X12266666Y4100000D01*
X12457142Y4195239D01*
X12933333Y4195239D01*
X13123809Y4100000D01*
X13219047Y4004762D01*
X13314285Y3814286D01*
X13314285Y3623810D01*
X13219047Y3338096D01*
X12076190Y2195239D01*
X13314285Y2195239D01*
X14552380Y4195239D02*
X14742857Y4195239D01*
X14933333Y4100000D01*
X15028571Y4004762D01*
X15123809Y3814286D01*
X15219047Y3433334D01*
X15219047Y2957143D01*
X15123809Y2576191D01*
X15028571Y2385715D01*
X14933333Y2290477D01*
X14742857Y2195239D01*
X14552380Y2195239D01*
X14361904Y2290477D01*
X14266666Y2385715D01*
X14171428Y2576191D01*
X14076190Y2957143D01*
X14076190Y3433334D01*
X14171428Y3814286D01*
X14266666Y4004762D01*
X14361904Y4100000D01*
X14552380Y4195239D01*
X17123809Y2195239D02*
X15980952Y2195239D01*
X16552380Y2195239D02*
X16552380Y4195239D01*
X16361904Y3909524D01*
X16171428Y3719048D01*
X15980952Y3623810D01*
X18076190Y2195239D02*
X18457142Y2195239D01*
X18647619Y2290477D01*
X18742857Y2385715D01*
X18933333Y2671429D01*
X19028571Y3052381D01*
X19028571Y3814286D01*
X18933333Y4004762D01*
X18838095Y4100000D01*
X18647619Y4195239D01*
X18266666Y4195239D01*
X18076190Y4100000D01*
X17980952Y4004762D01*
X17885714Y3814286D01*
X17885714Y3338096D01*
X17980952Y3147620D01*
X18076190Y3052381D01*
X18266666Y2957143D01*
X18647619Y2957143D01*
X18838095Y3052381D01*
X18933333Y3147620D01*
X19028571Y3338096D01*
X23052538Y14208123D02*
X23002030Y14359645D01*
X22850507Y14511168D01*
X22648477Y14612184D01*
X22446446Y14612184D01*
X22294923Y14561676D01*
X22042385Y14410153D01*
X21890862Y14258630D01*
X21739339Y14006092D01*
X21688832Y13854569D01*
X21688832Y13652539D01*
X21789847Y13450508D01*
X21890862Y13349493D01*
X22092893Y13248478D01*
X22193908Y13248478D01*
X22547461Y13602031D01*
X22345431Y13804062D01*
X22547461Y12692894D02*
X23608122Y13753554D01*
X23153553Y12086802D01*
X24214213Y13147462D01*
D11*
G04 #@! TO.C,J6*
X24516426Y17016478D02*
X15493744Y26039160D01*
X15493744Y26039160D02*
X13612840Y24158256D01*
X13612840Y24158256D02*
X22635522Y15135574D01*
X22635522Y15135574D02*
X24516426Y17016478D01*
X25414452Y16118452D02*
X26354904Y15178000D01*
X26354904Y15178000D02*
X25414452Y14237548D01*
G04 #@! TO.C,JP1*
X13200000Y29680904D02*
X14140452Y28740452D01*
X12259548Y28740452D02*
X13200000Y29680904D01*
X13242426Y25961522D02*
X11361522Y27842426D01*
X11403949Y24123045D02*
X13242426Y25961522D01*
X9523045Y26003949D02*
X11403949Y24123045D01*
X11361522Y27842426D02*
X9523045Y26003949D01*
G04 #@! TO.C,J1*
X10890000Y3560000D02*
G75*
G03X10890000Y3560000I-1200000J0D01*
G01*
G04 #@! TO.C,J2*
X4330000Y20260000D02*
G75*
G03X4330000Y20260000I-1200000J0D01*
G01*
G04 #@! TO.C,J3*
X3430000Y12630000D02*
G75*
G03X3430000Y12630000I-1200000J0D01*
G01*
G04 #@! TO.C,J4*
X8010000Y6070000D02*
G75*
G03X8010000Y6070000I-1200000J0D01*
G01*
G04 #@! TO.C,J5*
X6360000Y7720000D02*
G75*
G03X6360000Y7720000I-1200000J0D01*
G01*
G04 #@! TO.C,J1*
D12*
X9356666Y6105620D02*
X9356666Y5391334D01*
X9309047Y5248477D01*
X9213809Y5153239D01*
X9070952Y5105620D01*
X8975714Y5105620D01*
X10356666Y5105620D02*
X9785238Y5105620D01*
X10070952Y5105620D02*
X10070952Y6105620D01*
X9975714Y5962762D01*
X9880476Y5867524D01*
X9785238Y5819905D01*
G04 #@! TO.C,J2*
X2796666Y22805620D02*
X2796666Y22091334D01*
X2749047Y21948477D01*
X2653809Y21853239D01*
X2510952Y21805620D01*
X2415714Y21805620D01*
X3225238Y22710381D02*
X3272857Y22758000D01*
X3368095Y22805620D01*
X3606190Y22805620D01*
X3701428Y22758000D01*
X3749047Y22710381D01*
X3796666Y22615143D01*
X3796666Y22519905D01*
X3749047Y22377048D01*
X3177619Y21805620D01*
X3796666Y21805620D01*
G04 #@! TO.C,J3*
X1896666Y15175620D02*
X1896666Y14461334D01*
X1849047Y14318477D01*
X1753809Y14223239D01*
X1610952Y14175620D01*
X1515714Y14175620D01*
X2277619Y15175620D02*
X2896666Y15175620D01*
X2563333Y14794667D01*
X2706190Y14794667D01*
X2801428Y14747048D01*
X2849047Y14699429D01*
X2896666Y14604191D01*
X2896666Y14366096D01*
X2849047Y14270858D01*
X2801428Y14223239D01*
X2706190Y14175620D01*
X2420476Y14175620D01*
X2325238Y14223239D01*
X2277619Y14270858D01*
G04 #@! TO.C,J4*
X6476666Y8615620D02*
X6476666Y7901334D01*
X6429047Y7758477D01*
X6333809Y7663239D01*
X6190952Y7615620D01*
X6095714Y7615620D01*
X7381428Y8282286D02*
X7381428Y7615620D01*
X7143333Y8663239D02*
X6905238Y7948953D01*
X7524285Y7948953D01*
G04 #@! TO.C,J5*
X4826666Y10265620D02*
X4826666Y9551334D01*
X4779047Y9408477D01*
X4683809Y9313239D01*
X4540952Y9265620D01*
X4445714Y9265620D01*
X5779047Y10265620D02*
X5302857Y10265620D01*
X5255238Y9789429D01*
X5302857Y9837048D01*
X5398095Y9884667D01*
X5636190Y9884667D01*
X5731428Y9837048D01*
X5779047Y9789429D01*
X5826666Y9694191D01*
X5826666Y9456096D01*
X5779047Y9360858D01*
X5731428Y9313239D01*
X5636190Y9265620D01*
X5398095Y9265620D01*
X5302857Y9313239D01*
X5255238Y9360858D01*
G04 #@! TD*
M02*
