G04 #@! TF.GenerationSoftware,KiCad,Pcbnew,5.0.2-bee76a0~70~ubuntu18.04.1*
G04 #@! TF.CreationDate,2019-06-02T17:18:19-04:00*
G04 #@! TF.ProjectId,AiLight Flasher,41694c69-6768-4742-9046-6c6173686572,rev?*
G04 #@! TF.SameCoordinates,PX5204180PY6cb8080*
G04 #@! TF.FileFunction,Copper,L2,Bot*
G04 #@! TF.FilePolarity,Positive*
%FSLAX46Y46*%
G04 Gerber Fmt 4.6, Leading zero omitted, Abs format (unit mm)*
G04 Created by KiCad (PCBNEW 5.0.2-bee76a0~70~ubuntu18.04.1) date Sun 02 Jun 2019 05:18:19 PM EDT*
%MOMM*%
%LPD*%
G01*
G04 APERTURE LIST*
G04 #@! TA.AperFunction,ComponentPad*
%ADD10C,2.000000*%
G04 #@! TD*
G04 #@! TA.AperFunction,ComponentPad*
%ADD11C,4.500880*%
G04 #@! TD*
G04 #@! TA.AperFunction,ComponentPad*
%ADD12C,1.700000*%
G04 #@! TD*
G04 #@! TA.AperFunction,Conductor*
%ADD13C,0.050000*%
G04 #@! TD*
G04 #@! TA.AperFunction,Conductor*
%ADD14C,1.700000*%
G04 #@! TD*
G04 #@! TA.AperFunction,ComponentPad*
%ADD15O,2.200000X1.800000*%
G04 #@! TD*
G04 #@! TA.AperFunction,ComponentPad*
%ADD16R,2.200000X1.800000*%
G04 #@! TD*
G04 #@! TA.AperFunction,Conductor*
%ADD17C,0.500000*%
G04 #@! TD*
G04 #@! TA.AperFunction,Conductor*
%ADD18C,0.254000*%
G04 #@! TD*
G04 APERTURE END LIST*
D10*
G04 #@! TO.P,J1,1*
G04 #@! TO.N,GND*
X8690000Y2560000D03*
G04 #@! TD*
G04 #@! TO.P,J2,1*
G04 #@! TO.N,Net-(J2-Pad1)*
X2130000Y19260000D03*
G04 #@! TD*
G04 #@! TO.P,J3,1*
G04 #@! TO.N,3V3*
X1230000Y11630000D03*
G04 #@! TD*
G04 #@! TO.P,J4,1*
G04 #@! TO.N,aRX*
X5810000Y5070000D03*
G04 #@! TD*
G04 #@! TO.P,J5,1*
G04 #@! TO.N,aTX*
X4160000Y6720000D03*
G04 #@! TD*
D11*
G04 #@! TO.P,H1,1*
G04 #@! TO.N,N/C*
X5600000Y23040000D03*
G04 #@! TD*
G04 #@! TO.P,H2,1*
G04 #@! TO.N,N/C*
X22670000Y4690000D03*
G04 #@! TD*
D12*
G04 #@! TO.P,J6,1*
G04 #@! TO.N,GND*
X15000000Y24000000D03*
D13*
G04 #@! TD*
G04 #@! TO.N,GND*
G04 #@! TO.C,J6*
G36*
X14893934Y22691852D02*
X13691852Y23893934D01*
X15106066Y25308148D01*
X16308148Y24106066D01*
X14893934Y22691852D01*
X14893934Y22691852D01*
G37*
D12*
G04 #@! TO.P,J6,2*
G04 #@! TO.N,Net-(J6-Pad2)*
X16796051Y22203949D03*
D14*
G04 #@! TD*
G04 #@! TO.N,Net-(J6-Pad2)*
G04 #@! TO.C,J6*
X16619274Y22027172D02*
X16972828Y22380726D01*
D12*
G04 #@! TO.P,J6,3*
G04 #@! TO.N,3V3*
X18592102Y20407898D03*
D14*
G04 #@! TD*
G04 #@! TO.N,3V3*
G04 #@! TO.C,J6*
X18415325Y20231121D02*
X18768879Y20584675D01*
D12*
G04 #@! TO.P,J6,4*
G04 #@! TO.N,aRX*
X20388154Y18611846D03*
D14*
G04 #@! TD*
G04 #@! TO.N,aRX*
G04 #@! TO.C,J6*
X20211377Y18435069D02*
X20564931Y18788623D01*
D12*
G04 #@! TO.P,J6,5*
G04 #@! TO.N,aTX*
X22184205Y16815795D03*
D14*
G04 #@! TD*
G04 #@! TO.N,aTX*
G04 #@! TO.C,J6*
X22007428Y16639018D02*
X22360982Y16992572D01*
D12*
G04 #@! TO.P,J6,6*
G04 #@! TO.N,Net-(J6-Pad6)*
X23980256Y15019744D03*
D14*
G04 #@! TD*
G04 #@! TO.N,Net-(J6-Pad6)*
G04 #@! TO.C,J6*
X23803479Y14842967D02*
X24157033Y15196521D01*
D15*
G04 #@! TO.P,JP1,2*
G04 #@! TO.N,Net-(J2-Pad1)*
X10700000Y22260000D03*
D16*
G04 #@! TO.P,JP1,1*
G04 #@! TO.N,GND*
X10700000Y24800000D03*
G04 #@! TD*
D17*
G04 #@! TO.N,Net-(J2-Pad1)*
X9560000Y22260000D02*
X10700000Y22260000D01*
X6900000Y19600000D02*
X9560000Y22260000D01*
X2130000Y19260000D02*
X2470000Y19600000D01*
X2470000Y19600000D02*
X6900000Y19600000D01*
G04 #@! TO.N,3V3*
X17784204Y19600000D02*
X18592102Y20407898D01*
X11500000Y19600000D02*
X17784204Y19600000D01*
X1230000Y11630000D02*
X3530000Y11630000D01*
X3530000Y11630000D02*
X11500000Y19600000D01*
G04 #@! TO.N,aRX*
X7140000Y6400000D02*
X17982000Y6400000D01*
X17982000Y6400000D02*
X25700000Y14118000D01*
X21590235Y18611846D02*
X20388154Y18611846D01*
X25700000Y16000000D02*
X23088154Y18611846D01*
X25700000Y14118000D02*
X25700000Y16000000D01*
X5810000Y5070000D02*
X7140000Y6400000D01*
X23088154Y18611846D02*
X21590235Y18611846D01*
G04 #@! TO.N,aTX*
X20000000Y14514000D02*
X22184205Y16698205D01*
X20000000Y11593000D02*
X20000000Y14514000D01*
X22184205Y16698205D02*
X22184205Y16815795D01*
X16407000Y8000000D02*
X20000000Y11593000D01*
X4160000Y6720000D02*
X5440000Y8000000D01*
X5440000Y8000000D02*
X16407000Y8000000D01*
G04 #@! TD*
D18*
G04 #@! TO.N,GND*
G36*
X15058465Y27155488D02*
X16450428Y26968524D01*
X17814642Y26634703D01*
X19135658Y26157805D01*
X20398517Y25543231D01*
X21588919Y24797940D01*
X22693383Y23930372D01*
X23699403Y22950351D01*
X24595585Y21868976D01*
X25371782Y20698491D01*
X26019203Y19452152D01*
X26530517Y18144072D01*
X26899935Y16789065D01*
X27123272Y15402473D01*
X27198000Y14000000D01*
X27197980Y13976965D01*
X27120804Y12574625D01*
X26895047Y11188425D01*
X26523266Y9834064D01*
X26009669Y8526879D01*
X25360073Y7281671D01*
X24932059Y6638676D01*
X24356584Y7214151D01*
X23262250Y7667440D01*
X22077750Y7667440D01*
X20983416Y7214151D01*
X20145849Y6376584D01*
X19692560Y5282250D01*
X19692560Y4097750D01*
X20145849Y3003416D01*
X20578702Y2570563D01*
X20378361Y2445619D01*
X19114431Y1833250D01*
X17792584Y1358659D01*
X16427790Y1027219D01*
X15035503Y842685D01*
X13631490Y807146D01*
X12231650Y921004D01*
X10851835Y1182970D01*
X10044242Y1427566D01*
X10055669Y1438993D01*
X9922191Y1572471D01*
X10209340Y1669975D01*
X10434285Y2319150D01*
X10393678Y3004993D01*
X10209340Y3450025D01*
X9922189Y3547530D01*
X8934659Y2560000D01*
X8948801Y2545858D01*
X8704142Y2301199D01*
X8690000Y2315341D01*
X8675858Y2301199D01*
X8431199Y2545858D01*
X8445341Y2560000D01*
X7457811Y3547530D01*
X7170660Y3450025D01*
X6958981Y2839134D01*
X6210098Y3366434D01*
X6788267Y3605920D01*
X6974536Y3792189D01*
X7702470Y3792189D01*
X8690000Y2804659D01*
X9677530Y3792189D01*
X9580025Y4079340D01*
X8930850Y4304285D01*
X8245007Y4263678D01*
X7799975Y4079340D01*
X7702470Y3792189D01*
X6974536Y3792189D01*
X7274080Y4091733D01*
X7537000Y4726478D01*
X7537000Y5413522D01*
X7536475Y5414789D01*
X7544687Y5423000D01*
X17885782Y5423000D01*
X17982000Y5403861D01*
X18078218Y5423000D01*
X18078223Y5423000D01*
X18363206Y5479687D01*
X18686377Y5695623D01*
X18740883Y5777197D01*
X26322806Y13359119D01*
X26404377Y13413623D01*
X26458881Y13495194D01*
X26458883Y13495196D01*
X26620312Y13736793D01*
X26620313Y13736794D01*
X26677000Y14021777D01*
X26677000Y14021781D01*
X26696139Y14117999D01*
X26677000Y14214217D01*
X26677000Y15903783D01*
X26696139Y16000001D01*
X26677000Y16096219D01*
X26677000Y16096223D01*
X26620313Y16381206D01*
X26565949Y16462567D01*
X26458883Y16622804D01*
X26458881Y16622806D01*
X26404377Y16704377D01*
X26322806Y16758881D01*
X23847037Y19234649D01*
X23792531Y19316223D01*
X23469360Y19532159D01*
X23184377Y19588846D01*
X23184372Y19588846D01*
X23088154Y19607985D01*
X22991936Y19588846D01*
X21926880Y19588846D01*
X21701884Y19925576D01*
X21180245Y20274124D01*
X20564931Y20396517D01*
X20330053Y20349797D01*
X20376773Y20584675D01*
X20254380Y21199989D01*
X19905832Y21721628D01*
X19384193Y22070176D01*
X18768879Y22192569D01*
X18534002Y22145849D01*
X18580722Y22380726D01*
X18458329Y22996040D01*
X18109781Y23517679D01*
X17588142Y23866227D01*
X17035147Y23976224D01*
X17035148Y24250675D01*
X16924469Y24517878D01*
X16472020Y24970327D01*
X16214986Y24970327D01*
X15244659Y24000000D01*
X15258801Y23985858D01*
X15014142Y23741199D01*
X15000000Y23755341D01*
X14029673Y22785014D01*
X14029673Y22527980D01*
X14482122Y22075531D01*
X14749325Y21964852D01*
X15023776Y21964853D01*
X15133773Y21411858D01*
X15482321Y20890219D01*
X15951086Y20577000D01*
X11596217Y20577000D01*
X11499999Y20596139D01*
X11403781Y20577000D01*
X11403777Y20577000D01*
X11118794Y20520313D01*
X11037433Y20465949D01*
X10877196Y20358883D01*
X10877194Y20358881D01*
X10795623Y20304377D01*
X10741119Y20222806D01*
X3125314Y12607000D01*
X2694605Y12607000D01*
X2694080Y12608267D01*
X2208267Y13094080D01*
X1573522Y13357000D01*
X886478Y13357000D01*
X820105Y13329507D01*
X821313Y14713732D01*
X971776Y16110112D01*
X1269771Y17482597D01*
X1346884Y17715086D01*
X1786478Y17533000D01*
X2473522Y17533000D01*
X3108267Y17795920D01*
X3594080Y18281733D01*
X3735437Y18623000D01*
X6803782Y18623000D01*
X6900000Y18603861D01*
X6996218Y18623000D01*
X6996223Y18623000D01*
X7281206Y18679687D01*
X7604377Y18895623D01*
X7658883Y18977197D01*
X9591771Y20910084D01*
X9865176Y20727400D01*
X10339758Y20633000D01*
X11060242Y20633000D01*
X11534824Y20727400D01*
X12073001Y21086999D01*
X12432600Y21625176D01*
X12558874Y22260000D01*
X12432600Y22894824D01*
X12181237Y23271014D01*
X12211812Y23283679D01*
X12416321Y23488187D01*
X12524487Y23749325D01*
X12964852Y23749325D01*
X13075531Y23482122D01*
X13527980Y23029673D01*
X13785014Y23029673D01*
X14755341Y24000000D01*
X13891080Y24864261D01*
X13634046Y24864261D01*
X13075532Y24305747D01*
X12964853Y24038544D01*
X12964852Y23749325D01*
X12524487Y23749325D01*
X12527000Y23755390D01*
X12527000Y24445250D01*
X12345250Y24627000D01*
X10873000Y24627000D01*
X10873000Y24607000D01*
X10527000Y24607000D01*
X10527000Y24627000D01*
X9054750Y24627000D01*
X8873000Y24445250D01*
X8873000Y23755390D01*
X8983679Y23488187D01*
X9188188Y23283679D01*
X9218763Y23271014D01*
X9141514Y23155403D01*
X9112084Y23135739D01*
X8937196Y23018883D01*
X8937194Y23018881D01*
X8855623Y22964377D01*
X8801119Y22882806D01*
X8577440Y22659127D01*
X8577440Y23632250D01*
X8124151Y24726584D01*
X7425958Y25424777D01*
X8235090Y25872364D01*
X9115024Y26243158D01*
X8983679Y26111813D01*
X8873000Y25844610D01*
X8873000Y25154750D01*
X9054750Y24973000D01*
X10527000Y24973000D01*
X10527000Y26245250D01*
X10873000Y26245250D01*
X10873000Y24973000D01*
X12345250Y24973000D01*
X12527000Y25154750D01*
X12527000Y25365954D01*
X14135739Y25365954D01*
X14135739Y25108920D01*
X15000000Y24244659D01*
X15970327Y25214986D01*
X15970327Y25472020D01*
X15517878Y25924469D01*
X15250675Y26035148D01*
X14961456Y26035147D01*
X14694253Y25924468D01*
X14135739Y25365954D01*
X12527000Y25365954D01*
X12527000Y25844610D01*
X12416321Y26111813D01*
X12211812Y26316321D01*
X11944609Y26427000D01*
X11054750Y26427000D01*
X10873000Y26245250D01*
X10527000Y26245250D01*
X10345250Y26427000D01*
X9560091Y26427000D01*
X10874210Y26822505D01*
X12254480Y27082063D01*
X13654517Y27193477D01*
X15058465Y27155488D01*
X15058465Y27155488D01*
G37*
X15058465Y27155488D02*
X16450428Y26968524D01*
X17814642Y26634703D01*
X19135658Y26157805D01*
X20398517Y25543231D01*
X21588919Y24797940D01*
X22693383Y23930372D01*
X23699403Y22950351D01*
X24595585Y21868976D01*
X25371782Y20698491D01*
X26019203Y19452152D01*
X26530517Y18144072D01*
X26899935Y16789065D01*
X27123272Y15402473D01*
X27198000Y14000000D01*
X27197980Y13976965D01*
X27120804Y12574625D01*
X26895047Y11188425D01*
X26523266Y9834064D01*
X26009669Y8526879D01*
X25360073Y7281671D01*
X24932059Y6638676D01*
X24356584Y7214151D01*
X23262250Y7667440D01*
X22077750Y7667440D01*
X20983416Y7214151D01*
X20145849Y6376584D01*
X19692560Y5282250D01*
X19692560Y4097750D01*
X20145849Y3003416D01*
X20578702Y2570563D01*
X20378361Y2445619D01*
X19114431Y1833250D01*
X17792584Y1358659D01*
X16427790Y1027219D01*
X15035503Y842685D01*
X13631490Y807146D01*
X12231650Y921004D01*
X10851835Y1182970D01*
X10044242Y1427566D01*
X10055669Y1438993D01*
X9922191Y1572471D01*
X10209340Y1669975D01*
X10434285Y2319150D01*
X10393678Y3004993D01*
X10209340Y3450025D01*
X9922189Y3547530D01*
X8934659Y2560000D01*
X8948801Y2545858D01*
X8704142Y2301199D01*
X8690000Y2315341D01*
X8675858Y2301199D01*
X8431199Y2545858D01*
X8445341Y2560000D01*
X7457811Y3547530D01*
X7170660Y3450025D01*
X6958981Y2839134D01*
X6210098Y3366434D01*
X6788267Y3605920D01*
X6974536Y3792189D01*
X7702470Y3792189D01*
X8690000Y2804659D01*
X9677530Y3792189D01*
X9580025Y4079340D01*
X8930850Y4304285D01*
X8245007Y4263678D01*
X7799975Y4079340D01*
X7702470Y3792189D01*
X6974536Y3792189D01*
X7274080Y4091733D01*
X7537000Y4726478D01*
X7537000Y5413522D01*
X7536475Y5414789D01*
X7544687Y5423000D01*
X17885782Y5423000D01*
X17982000Y5403861D01*
X18078218Y5423000D01*
X18078223Y5423000D01*
X18363206Y5479687D01*
X18686377Y5695623D01*
X18740883Y5777197D01*
X26322806Y13359119D01*
X26404377Y13413623D01*
X26458881Y13495194D01*
X26458883Y13495196D01*
X26620312Y13736793D01*
X26620313Y13736794D01*
X26677000Y14021777D01*
X26677000Y14021781D01*
X26696139Y14117999D01*
X26677000Y14214217D01*
X26677000Y15903783D01*
X26696139Y16000001D01*
X26677000Y16096219D01*
X26677000Y16096223D01*
X26620313Y16381206D01*
X26565949Y16462567D01*
X26458883Y16622804D01*
X26458881Y16622806D01*
X26404377Y16704377D01*
X26322806Y16758881D01*
X23847037Y19234649D01*
X23792531Y19316223D01*
X23469360Y19532159D01*
X23184377Y19588846D01*
X23184372Y19588846D01*
X23088154Y19607985D01*
X22991936Y19588846D01*
X21926880Y19588846D01*
X21701884Y19925576D01*
X21180245Y20274124D01*
X20564931Y20396517D01*
X20330053Y20349797D01*
X20376773Y20584675D01*
X20254380Y21199989D01*
X19905832Y21721628D01*
X19384193Y22070176D01*
X18768879Y22192569D01*
X18534002Y22145849D01*
X18580722Y22380726D01*
X18458329Y22996040D01*
X18109781Y23517679D01*
X17588142Y23866227D01*
X17035147Y23976224D01*
X17035148Y24250675D01*
X16924469Y24517878D01*
X16472020Y24970327D01*
X16214986Y24970327D01*
X15244659Y24000000D01*
X15258801Y23985858D01*
X15014142Y23741199D01*
X15000000Y23755341D01*
X14029673Y22785014D01*
X14029673Y22527980D01*
X14482122Y22075531D01*
X14749325Y21964852D01*
X15023776Y21964853D01*
X15133773Y21411858D01*
X15482321Y20890219D01*
X15951086Y20577000D01*
X11596217Y20577000D01*
X11499999Y20596139D01*
X11403781Y20577000D01*
X11403777Y20577000D01*
X11118794Y20520313D01*
X11037433Y20465949D01*
X10877196Y20358883D01*
X10877194Y20358881D01*
X10795623Y20304377D01*
X10741119Y20222806D01*
X3125314Y12607000D01*
X2694605Y12607000D01*
X2694080Y12608267D01*
X2208267Y13094080D01*
X1573522Y13357000D01*
X886478Y13357000D01*
X820105Y13329507D01*
X821313Y14713732D01*
X971776Y16110112D01*
X1269771Y17482597D01*
X1346884Y17715086D01*
X1786478Y17533000D01*
X2473522Y17533000D01*
X3108267Y17795920D01*
X3594080Y18281733D01*
X3735437Y18623000D01*
X6803782Y18623000D01*
X6900000Y18603861D01*
X6996218Y18623000D01*
X6996223Y18623000D01*
X7281206Y18679687D01*
X7604377Y18895623D01*
X7658883Y18977197D01*
X9591771Y20910084D01*
X9865176Y20727400D01*
X10339758Y20633000D01*
X11060242Y20633000D01*
X11534824Y20727400D01*
X12073001Y21086999D01*
X12432600Y21625176D01*
X12558874Y22260000D01*
X12432600Y22894824D01*
X12181237Y23271014D01*
X12211812Y23283679D01*
X12416321Y23488187D01*
X12524487Y23749325D01*
X12964852Y23749325D01*
X13075531Y23482122D01*
X13527980Y23029673D01*
X13785014Y23029673D01*
X14755341Y24000000D01*
X13891080Y24864261D01*
X13634046Y24864261D01*
X13075532Y24305747D01*
X12964853Y24038544D01*
X12964852Y23749325D01*
X12524487Y23749325D01*
X12527000Y23755390D01*
X12527000Y24445250D01*
X12345250Y24627000D01*
X10873000Y24627000D01*
X10873000Y24607000D01*
X10527000Y24607000D01*
X10527000Y24627000D01*
X9054750Y24627000D01*
X8873000Y24445250D01*
X8873000Y23755390D01*
X8983679Y23488187D01*
X9188188Y23283679D01*
X9218763Y23271014D01*
X9141514Y23155403D01*
X9112084Y23135739D01*
X8937196Y23018883D01*
X8937194Y23018881D01*
X8855623Y22964377D01*
X8801119Y22882806D01*
X8577440Y22659127D01*
X8577440Y23632250D01*
X8124151Y24726584D01*
X7425958Y25424777D01*
X8235090Y25872364D01*
X9115024Y26243158D01*
X8983679Y26111813D01*
X8873000Y25844610D01*
X8873000Y25154750D01*
X9054750Y24973000D01*
X10527000Y24973000D01*
X10527000Y26245250D01*
X10873000Y26245250D01*
X10873000Y24973000D01*
X12345250Y24973000D01*
X12527000Y25154750D01*
X12527000Y25365954D01*
X14135739Y25365954D01*
X14135739Y25108920D01*
X15000000Y24244659D01*
X15970327Y25214986D01*
X15970327Y25472020D01*
X15517878Y25924469D01*
X15250675Y26035148D01*
X14961456Y26035147D01*
X14694253Y25924468D01*
X14135739Y25365954D01*
X12527000Y25365954D01*
X12527000Y25844610D01*
X12416321Y26111813D01*
X12211812Y26316321D01*
X11944609Y26427000D01*
X11054750Y26427000D01*
X10873000Y26245250D01*
X10527000Y26245250D01*
X10345250Y26427000D01*
X9560091Y26427000D01*
X10874210Y26822505D01*
X12254480Y27082063D01*
X13654517Y27193477D01*
X15058465Y27155488D01*
G04 #@! TD*
M02*
