G04 #@! TF.GenerationSoftware,KiCad,Pcbnew,5.0.2-bee76a0~70~ubuntu18.04.1*
G04 #@! TF.CreationDate,2019-06-06T19:50:13-04:00*
G04 #@! TF.ProjectId,AiLight Flasher,41694c69-6768-4742-9046-6c6173686572,rev?*
G04 #@! TF.SameCoordinates,PX510ff40PY6dac2c0*
G04 #@! TF.FileFunction,Legend,Top*
G04 #@! TF.FilePolarity,Positive*
%FSLAX46Y46*%
G04 Gerber Fmt 4.6, Leading zero omitted, Abs format (unit mm)*
G04 Created by KiCad (PCBNEW 5.0.2-bee76a0~70~ubuntu18.04.1) date Thu 06 Jun 2019 07:50:13 PM EDT*
%MOMM*%
%LPD*%
G01*
G04 APERTURE LIST*
%ADD10C,0.300000*%
%ADD11C,0.120000*%
G04 APERTURE END LIST*
D10*
X18861040Y17522716D02*
X19517639Y18179315D01*
X19568147Y17421701D01*
X19719669Y17573224D01*
X19871192Y17623731D01*
X19972208Y17623731D01*
X20123730Y17573224D01*
X20376269Y17320686D01*
X20426776Y17169163D01*
X20426776Y17068148D01*
X20376269Y16916625D01*
X20073223Y16613579D01*
X19921700Y16563071D01*
X19820685Y16563071D01*
X19820685Y18482361D02*
X21234898Y17775254D01*
X20527791Y19189468D01*
X17111040Y19272716D02*
X17717131Y19878808D01*
X18474746Y18515102D02*
X17414086Y19575762D01*
X17969669Y20131346D02*
X19737436Y19777792D01*
X18676776Y20838453D02*
X19030330Y19070686D01*
X16803045Y20593401D02*
X15944416Y20744924D01*
X16196954Y19987310D02*
X15136294Y21047970D01*
X15540355Y21452031D01*
X15691877Y21502539D01*
X15792893Y21502539D01*
X15944416Y21452031D01*
X16095938Y21300508D01*
X16146446Y21148985D01*
X16146446Y21047970D01*
X16095938Y20896447D01*
X15691877Y20492386D01*
X16095938Y22007615D02*
X17863705Y21654062D01*
X16803045Y22714722D02*
X17156599Y20946955D01*
X8641370Y20181726D02*
X7580710Y21242386D01*
X7984771Y21646447D01*
X8136294Y21696955D01*
X8237309Y21696955D01*
X8388832Y21646447D01*
X8540355Y21494924D01*
X8590862Y21343401D01*
X8590862Y21242386D01*
X8540355Y21090863D01*
X8136294Y20686802D01*
X10308122Y21848478D02*
X9449492Y22000000D01*
X9702030Y21242386D02*
X8641370Y22303046D01*
X9045431Y22707107D01*
X9196954Y22757615D01*
X9297969Y22757615D01*
X9449492Y22707107D01*
X9601015Y22555584D01*
X9651522Y22404062D01*
X9651522Y22303046D01*
X9601015Y22151523D01*
X9196954Y21747462D01*
X10308122Y23868783D02*
X10156599Y23818275D01*
X10005076Y23666752D01*
X9904061Y23464722D01*
X9904061Y23262691D01*
X9954568Y23111168D01*
X10106091Y22858630D01*
X10257614Y22707107D01*
X10510152Y22555584D01*
X10661675Y22505077D01*
X10863705Y22505077D01*
X11065736Y22606092D01*
X11166751Y22707107D01*
X11267766Y22909138D01*
X11267766Y23010153D01*
X10914213Y23363706D01*
X10712183Y23161676D01*
X22720473Y24481558D02*
X22249068Y24952962D01*
X21508290Y24212184D02*
X22922503Y25626397D01*
X23595938Y24952962D01*
X23932656Y24616245D02*
X24740778Y23808123D01*
X22922503Y22797970D02*
X24336717Y24212184D01*
X23797969Y21922504D02*
X25212183Y23336718D01*
X25548900Y23000000D01*
X25683587Y22730626D01*
X25683587Y22461252D01*
X25616244Y22259222D01*
X25414213Y21922504D01*
X25212183Y21720474D01*
X24875465Y21518443D01*
X24673435Y21451100D01*
X24404061Y21451100D01*
X24134687Y21585787D01*
X23797969Y21922504D01*
X25212183Y20508291D02*
X26626396Y21922504D01*
X5504761Y9366667D02*
X6457142Y9366667D01*
X5314285Y8795239D02*
X5980952Y10795239D01*
X6647619Y8795239D01*
X7314285Y8795239D02*
X7314285Y10128572D01*
X7314285Y10795239D02*
X7219047Y10700000D01*
X7314285Y10604762D01*
X7409523Y10700000D01*
X7314285Y10795239D01*
X7314285Y10604762D01*
X9219047Y8795239D02*
X8266666Y8795239D01*
X8266666Y10795239D01*
X9885714Y8795239D02*
X9885714Y10128572D01*
X9885714Y10795239D02*
X9790476Y10700000D01*
X9885714Y10604762D01*
X9980952Y10700000D01*
X9885714Y10795239D01*
X9885714Y10604762D01*
X11695238Y10128572D02*
X11695238Y8509524D01*
X11600000Y8319048D01*
X11504761Y8223810D01*
X11314285Y8128572D01*
X11028571Y8128572D01*
X10838095Y8223810D01*
X11695238Y8890477D02*
X11504761Y8795239D01*
X11123809Y8795239D01*
X10933333Y8890477D01*
X10838095Y8985715D01*
X10742857Y9176191D01*
X10742857Y9747620D01*
X10838095Y9938096D01*
X10933333Y10033334D01*
X11123809Y10128572D01*
X11504761Y10128572D01*
X11695238Y10033334D01*
X12647619Y8795239D02*
X12647619Y10795239D01*
X13504761Y8795239D02*
X13504761Y9842858D01*
X13409523Y10033334D01*
X13219047Y10128572D01*
X12933333Y10128572D01*
X12742857Y10033334D01*
X12647619Y9938096D01*
X14171428Y10128572D02*
X14933333Y10128572D01*
X14457142Y10795239D02*
X14457142Y9080953D01*
X14552380Y8890477D01*
X14742857Y8795239D01*
X14933333Y8795239D01*
X16266666Y9842858D02*
X15600000Y9842858D01*
X15600000Y8795239D02*
X15600000Y10795239D01*
X16552380Y10795239D01*
X17600000Y8795239D02*
X17409523Y8890477D01*
X17314285Y9080953D01*
X17314285Y10795239D01*
X19219047Y8795239D02*
X19219047Y9842858D01*
X19123809Y10033334D01*
X18933333Y10128572D01*
X18552380Y10128572D01*
X18361904Y10033334D01*
X19219047Y8890477D02*
X19028571Y8795239D01*
X18552380Y8795239D01*
X18361904Y8890477D01*
X18266666Y9080953D01*
X18266666Y9271429D01*
X18361904Y9461905D01*
X18552380Y9557143D01*
X19028571Y9557143D01*
X19219047Y9652381D01*
X20076190Y8890477D02*
X20266666Y8795239D01*
X20647619Y8795239D01*
X20838095Y8890477D01*
X20933333Y9080953D01*
X20933333Y9176191D01*
X20838095Y9366667D01*
X20647619Y9461905D01*
X20361904Y9461905D01*
X20171428Y9557143D01*
X20076190Y9747620D01*
X20076190Y9842858D01*
X20171428Y10033334D01*
X20361904Y10128572D01*
X20647619Y10128572D01*
X20838095Y10033334D01*
X21790476Y8795239D02*
X21790476Y10795239D01*
X22647619Y8795239D02*
X22647619Y9842858D01*
X22552380Y10033334D01*
X22361904Y10128572D01*
X22076190Y10128572D01*
X21885714Y10033334D01*
X21790476Y9938096D01*
X24361904Y8890477D02*
X24171428Y8795239D01*
X23790476Y8795239D01*
X23600000Y8890477D01*
X23504761Y9080953D01*
X23504761Y9842858D01*
X23600000Y10033334D01*
X23790476Y10128572D01*
X24171428Y10128572D01*
X24361904Y10033334D01*
X24457142Y9842858D01*
X24457142Y9652381D01*
X23504761Y9461905D01*
X25314285Y8795239D02*
X25314285Y10128572D01*
X25314285Y9747620D02*
X25409523Y9938096D01*
X25504761Y10033334D01*
X25695238Y10128572D01*
X25885714Y10128572D01*
X11409523Y5590477D02*
X11219047Y5495239D01*
X10838095Y5495239D01*
X10647619Y5590477D01*
X10552380Y5685715D01*
X10457142Y5876191D01*
X10457142Y6447620D01*
X10552380Y6638096D01*
X10647619Y6733334D01*
X10838095Y6828572D01*
X11219047Y6828572D01*
X11409523Y6733334D01*
X12266666Y6828572D02*
X12266666Y4828572D01*
X12266666Y6733334D02*
X12457142Y6828572D01*
X12838095Y6828572D01*
X13028571Y6733334D01*
X13123809Y6638096D01*
X13219047Y6447620D01*
X13219047Y5876191D01*
X13123809Y5685715D01*
X13028571Y5590477D01*
X12838095Y5495239D01*
X12457142Y5495239D01*
X12266666Y5590477D01*
X14838095Y5590477D02*
X14647619Y5495239D01*
X14266666Y5495239D01*
X14076190Y5590477D01*
X13980952Y5780953D01*
X13980952Y6542858D01*
X14076190Y6733334D01*
X14266666Y6828572D01*
X14647619Y6828572D01*
X14838095Y6733334D01*
X14933333Y6542858D01*
X14933333Y6352381D01*
X13980952Y6161905D01*
X15790476Y5495239D02*
X15790476Y6828572D01*
X15790476Y6447620D02*
X15885714Y6638096D01*
X15980952Y6733334D01*
X16171428Y6828572D01*
X16361904Y6828572D01*
X17028571Y5495239D02*
X17028571Y6828572D01*
X17028571Y7495239D02*
X16933333Y7400000D01*
X17028571Y7304762D01*
X17123809Y7400000D01*
X17028571Y7495239D01*
X17028571Y7304762D01*
X18266666Y5495239D02*
X18076190Y5590477D01*
X17980952Y5685715D01*
X17885714Y5876191D01*
X17885714Y6447620D01*
X17980952Y6638096D01*
X18076190Y6733334D01*
X18266666Y6828572D01*
X18552380Y6828572D01*
X18742857Y6733334D01*
X18838095Y6638096D01*
X18933333Y6447620D01*
X18933333Y5876191D01*
X18838095Y5685715D01*
X18742857Y5590477D01*
X18552380Y5495239D01*
X18266666Y5495239D01*
X20647619Y5495239D02*
X20647619Y7495239D01*
X20647619Y5590477D02*
X20457142Y5495239D01*
X20076190Y5495239D01*
X19885714Y5590477D01*
X19790476Y5685715D01*
X19695238Y5876191D01*
X19695238Y6447620D01*
X19790476Y6638096D01*
X19885714Y6733334D01*
X20076190Y6828572D01*
X20457142Y6828572D01*
X20647619Y6733334D01*
X12171428Y4004762D02*
X12266666Y4100000D01*
X12457142Y4195239D01*
X12933333Y4195239D01*
X13123809Y4100000D01*
X13219047Y4004762D01*
X13314285Y3814286D01*
X13314285Y3623810D01*
X13219047Y3338096D01*
X12076190Y2195239D01*
X13314285Y2195239D01*
X14552380Y4195239D02*
X14742857Y4195239D01*
X14933333Y4100000D01*
X15028571Y4004762D01*
X15123809Y3814286D01*
X15219047Y3433334D01*
X15219047Y2957143D01*
X15123809Y2576191D01*
X15028571Y2385715D01*
X14933333Y2290477D01*
X14742857Y2195239D01*
X14552380Y2195239D01*
X14361904Y2290477D01*
X14266666Y2385715D01*
X14171428Y2576191D01*
X14076190Y2957143D01*
X14076190Y3433334D01*
X14171428Y3814286D01*
X14266666Y4004762D01*
X14361904Y4100000D01*
X14552380Y4195239D01*
X17123809Y2195239D02*
X15980952Y2195239D01*
X16552380Y2195239D02*
X16552380Y4195239D01*
X16361904Y3909524D01*
X16171428Y3719048D01*
X15980952Y3623810D01*
X18076190Y2195239D02*
X18457142Y2195239D01*
X18647619Y2290477D01*
X18742857Y2385715D01*
X18933333Y2671429D01*
X19028571Y3052381D01*
X19028571Y3814286D01*
X18933333Y4004762D01*
X18838095Y4100000D01*
X18647619Y4195239D01*
X18266666Y4195239D01*
X18076190Y4100000D01*
X17980952Y4004762D01*
X17885714Y3814286D01*
X17885714Y3338096D01*
X17980952Y3147620D01*
X18076190Y3052381D01*
X18266666Y2957143D01*
X18647619Y2957143D01*
X18838095Y3052381D01*
X18933333Y3147620D01*
X19028571Y3338096D01*
X23191877Y14502539D02*
X23040355Y14452031D01*
X22888832Y14300508D01*
X22787816Y14098478D01*
X22787816Y13896447D01*
X22838324Y13744924D01*
X22989847Y13492386D01*
X23141370Y13340863D01*
X23393908Y13189340D01*
X23545431Y13138833D01*
X23747461Y13138833D01*
X23949492Y13239848D01*
X24050507Y13340863D01*
X24151522Y13542894D01*
X24151522Y13643909D01*
X23797969Y13997462D01*
X23595938Y13795432D01*
X24707106Y13997462D02*
X23646446Y15058123D01*
X25313198Y14603554D01*
X24252538Y15664214D01*
D11*
G04 #@! TO.C,J6*
X26042426Y18338478D02*
X17019744Y27361160D01*
X17019744Y27361160D02*
X15138840Y25480256D01*
X15138840Y25480256D02*
X24161522Y16457574D01*
X24161522Y16457574D02*
X26042426Y18338478D01*
X26940452Y17440452D02*
X27880904Y16500000D01*
X27880904Y16500000D02*
X26940452Y15559548D01*
G04 #@! TO.C,JP1*
X13200000Y29680904D02*
X14140452Y28740452D01*
X12259548Y28740452D02*
X13200000Y29680904D01*
X13242426Y25961522D02*
X11361522Y27842426D01*
X11403949Y24123045D02*
X13242426Y25961522D01*
X9523045Y26003949D02*
X11403949Y24123045D01*
X11361522Y27842426D02*
X9523045Y26003949D01*
G04 #@! TO.C,J1*
X10890000Y3560000D02*
G75*
G03X10890000Y3560000I-1200000J0D01*
G01*
G04 #@! TO.C,J2*
X4330000Y20260000D02*
G75*
G03X4330000Y20260000I-1200000J0D01*
G01*
G04 #@! TO.C,J3*
X3430000Y12630000D02*
G75*
G03X3430000Y12630000I-1200000J0D01*
G01*
G04 #@! TO.C,J4*
X8010000Y6070000D02*
G75*
G03X8010000Y6070000I-1200000J0D01*
G01*
G04 #@! TO.C,J5*
X6360000Y7720000D02*
G75*
G03X6360000Y7720000I-1200000J0D01*
G01*
G04 #@! TD*
M02*
